<svg width="664" height="800" viewBox="0 0 664 800" fill="none" xmlns="http://www.w3.org/2000/svg">
<g style="mix-blend-mode:color-dodge" clip-path="url(#clip0_622_3573)">
<g opacity="0.16">
<path d="M-105.068 611.672L161.488 344.879H237.036L-105.068 687.287V611.672Z" fill="#5551FE"/>
<path d="M-105.068 460.07L34.5262 320.352H210.017L-105.068 635.717V460.07Z" fill="#5551FE"/>
<path d="M36.293 1222.99L733.133 525.528H789.035L92.1943 1222.99H36.293Z" fill="#5551FE"/>
<path d="M-105.068 1171.64L540.468 525.528H562.213L-105.068 1193.42V1171.64Z" fill="#5038E0"/>
<path d="M562.214 525.528H540.469L687.45 378.417H709.208L562.214 525.528Z" fill="#5551FE"/>
<path d="M-105.068 1143.9V885.748L54.8213 725.73H312.749L-105.068 1143.9Z" fill="#61D5FF"/>
<path d="M880.584 -131.222L24.4059 725.73H-55.2559L800.936 -131.222H880.584Z" fill="#5038E0"/>
<path d="M947.406 -131.222L91.2141 725.73H54.752L910.93 -131.222H947.406Z" fill="#5551FE"/>
<path d="M493.182 -11.291L-3.30311 485.634H-33.2764L463.208 -11.291H493.182Z" fill="#5038E0"/>
<path d="M276.135 1222.99H288.16L778.653 732.059H766.614L276.135 1222.99Z" fill="#35279D"/>
<path d="M639.873 1222.99L1827.8 34.0055V21.9558L627.848 1222.99H639.873Z" fill="#5551FE"/>
<path d="M694.766 525.528L360.035 860.556H348.01L682.727 525.528H694.766Z" fill="#5551FE"/>
<path d="M-105.068 732.846L211.218 416.279H199.179L-105.068 720.81V732.846Z" fill="#5551FE"/>
<path d="M924.363 224.383L495.142 653.985H465.169L894.39 224.383H924.363Z" fill="#45C3F0"/>
<path d="M-105.068 1107.67L210.624 791.7H223.561L-105.068 1120.62V1107.67Z" fill="#5551FE"/>
<path d="M-105.068 514.28L539.875 -131.222H554.316L-105.068 528.748V514.28Z" fill="#45C3F0"/>
<path d="M369.271 601.806L105.766 865.545H32.6348L296.154 601.806H369.271Z" fill="#5038E0"/>
<path d="M489.882 481.088L411.09 559.95H337.959L416.751 481.088H489.882Z" fill="#5551FE"/>
<path d="M555.462 415.464L514.899 456.063H441.768L482.33 415.464H555.462Z" fill="#5551FE"/>
<path d="M440.387 309.379L260.796 489.13H181.134L360.725 309.379H440.387Z" fill="#45C3F0"/>
<path d="M-105.068 820.552L71.4992 643.828H83.3863L-105.068 832.45V820.552Z" fill="#5551FE"/>
<path d="M-105.068 579.89L-43.7688 518.522H40.0486L-105.068 663.782V579.89Z" fill="#5038E0"/>
</g>
</g>
<defs>
<clipPath id="clip0_622_3573">
<rect width="664" height="800" fill="white"/>
</clipPath>
</defs>
</svg>
