<svg width="1440" height="1137" viewBox="0 0 1440 1137" fill="none" xmlns="http://www.w3.org/2000/svg">
<g opacity="0.3" clip-path="url(#clip0_670_1656)">
<g opacity="0.16">
<path d="M-171.468 1373.6L288.476 912.738H325.373L-134.571 1373.6H-171.468Z" fill="#5551FE"/>
<path d="M368.184 832.988L316.087 885.071H352.984L405.081 832.988H368.184Z" fill="#5038E0"/>
<path d="M-264.772 1339.67L161.309 912.738H175.661L-264.772 1354.06V1339.67Z" fill="#5038E0"/>
<path d="M175.661 912.738H161.309L258.322 815.531H272.683L175.661 912.738Z" fill="#5551FE"/>
<path d="M-264.772 1321.34V1150.76L-159.238 1045.03H11.0044L-264.772 1321.34Z" fill="#45C3F0"/>
<path d="M385.799 478.775L-179.314 1045.02H-231.894L333.228 478.775H385.799Z" fill="#5038E0"/>
<path d="M346.305 1145.34L457.807 1033.61H561.199L449.697 1145.34H346.305Z" fill="#35279D"/>
<path d="M30.9703 1096.33L-245.745 1373.6H-230.937L45.7784 1096.33H30.9703Z" fill="#45C3F0"/>
<path d="M429.904 478.775L-135.217 1045.02H-159.284L405.829 478.775H429.904Z" fill="#5551FE"/>
<path d="M337.119 1199.99L580.636 955.99H567.45L323.924 1199.99H337.119Z" fill="#5551FE"/>
<path d="M-104.453 1373.6L158.073 1110.55H179.506L-83.0202 1373.6H-104.453Z" fill="#5551FE"/>
<path d="M130.098 558.021L-197.603 886.376H-217.386L110.314 558.021H130.098Z" fill="#5038E0"/>
<path d="M502.833 864.518L371.319 996.303H363.382L494.896 864.518H502.833Z" fill="#5551FE"/>
<path d="M-13.1626 1373.6H-5.22545L318.52 1049.21H310.574L-13.1626 1373.6Z" fill="#35279D"/>
<path d="M226.92 1373.6L1011 587.952V579.99L218.982 1373.6H226.92Z" fill="#5551FE"/>
<path d="M263 913L41.9415 1137H34L255.049 913H263Z" fill="#5551FE"/>
<path d="M414.695 713.75L131.392 997.619H111.608L394.912 713.75H414.695Z" fill="#45C3F0"/>
<path d="M-264.772 905.305L160.917 478.775H170.449L-264.772 914.865V905.305Z" fill="#45C3F0"/>
<path d="M48.3116 963.139L-125.613 1137.41H-173.882L0.0509644 963.139H48.3116Z" fill="#5038E0"/>
<path d="M127.92 883.373L75.9137 935.483H27.644L79.6499 883.373H127.92Z" fill="#5551FE"/>
<path d="M171.205 840.01L144.432 866.836H96.1621L122.935 840.01H171.205Z" fill="#5551FE"/>
<path d="M95.2507 769.912L-23.2867 888.686H-75.8667L42.6707 769.912H95.2507Z" fill="#45C3F0"/>
</g>
</g>
<g opacity="0.3" clip-path="url(#clip1_670_1656)">
<g opacity="0.16">
<path d="M1856.47 -236.6L1396.52 224.262H1359.63L1819.57 -236.6H1856.47Z" fill="#5551FE"/>
<path d="M1316.82 304.012L1368.91 251.929H1332.02L1279.92 304.012H1316.82Z" fill="#5038E0"/>
<path d="M1509.34 224.262H1523.69L1426.68 321.469H1412.32L1509.34 224.262Z" fill="#5551FE"/>
<path d="M1231 747.25L1796.11 181H1848.69L1283.57 747.25H1231Z" fill="#5038E0"/>
<path d="M1402.7 -8.73883L1291.19 102.986H1187.8L1299.3 -8.73883H1402.7Z" fill="#35279D"/>
<path d="M1255.1 658.225L1820.22 91.975H1844.28L1279.17 658.225H1255.1Z" fill="#5551FE"/>
<path d="M1428.08 -63L1208 160H1219.92L1440 -63H1428.08Z" fill="#5551FE"/>
<path d="M1182.17 272.482L1313.68 140.697H1321.62L1190.1 272.482H1182.17Z" fill="#5551FE"/>
<path d="M1698.16 -236.599H1690.23L1366.48 87.793H1374.43L1698.16 -236.599Z" fill="#35279D"/>
<path d="M1421.85 224.262L1642.79 2.88431H1650.72L1429.8 224.262H1421.85Z" fill="#5551FE"/>
<path d="M1270.31 423.25L1553.61 139.381H1573.39L1290.09 423.25H1270.31Z" fill="#45C3F0"/>
</g>
</g>
<defs>
<clipPath id="clip0_670_1656">
<rect width="1049.93" height="592" fill="white" transform="translate(-4 545)"/>
</clipPath>
<clipPath id="clip1_670_1656">
<rect width="703.628" height="737" fill="white" transform="translate(1440 737) rotate(-180)"/>
</clipPath>
</defs>
</svg>
