<svg width="1270" height="590" viewBox="0 0 1270 590" fill="none" xmlns="http://www.w3.org/2000/svg">
<g clip-path="url(#clip0_493_165)">
<g opacity="0.16">
<path d="M-4 423.225L171.694 247.531H221.489L-4 473.02V423.225Z" fill="#5551FE"/>
<path d="M-4 323.389L88.0101 231.379H203.68L-4 439.059V323.389Z" fill="#5551FE"/>
<path d="M89.1748 825.8L548.479 366.496H585.325L126.021 825.8H89.1748Z" fill="#5551FE"/>
<path d="M628.077 287.016L576.053 338.923H612.899L664.923 287.016H628.077Z" fill="#5038E0"/>
<path d="M-4 791.984L421.489 366.496H435.821L-4 806.326V791.984Z" fill="#5038E0"/>
<path d="M435.822 366.496H421.489L518.368 269.617H532.709L435.822 366.496Z" fill="#5551FE"/>
<path d="M-4 773.721V603.715L101.387 498.337H271.393L-4 773.721Z" fill="#45C3F0"/>
<path d="M645.667 -66L81.34 498.337H28.833L593.17 -66H645.667Z" fill="#5038E0"/>
<path d="M606.229 598.309L717.576 486.961H820.825L709.477 598.309H606.229Z" fill="#35279D"/>
<path d="M291.332 549.47L15.001 825.8H29.7885L306.119 549.47H291.332Z" fill="#45C3F0"/>
<path d="M689.711 -66L125.375 498.337H101.342L665.669 -66H689.711Z" fill="#5551FE"/>
<path d="M597.055 652.781L840.234 409.602H827.066L583.878 652.781H597.055Z" fill="#5551FE"/>
<path d="M156.097 825.8L418.259 563.638H439.662L177.5 825.8H156.097Z" fill="#5551FE"/>
<path d="M390.322 12.979L63.0764 340.224H43.3203L370.565 12.979H390.322Z" fill="#5038E0"/>
<path d="M762.539 318.438L631.207 449.779H623.281L754.612 318.438H762.539Z" fill="#5551FE"/>
<path d="M247.26 825.8H255.186L578.482 502.504H570.546L247.26 825.8Z" fill="#35279D"/>
<path d="M487.008 825.8L1270 42.8087V34.8735L479.082 825.8H487.008Z" fill="#5551FE"/>
<path d="M523.19 366.496L302.561 587.125H294.635L515.255 366.496H523.19Z" fill="#5551FE"/>
<path d="M-4 503.023L204.472 294.551H196.537L-4 495.097V503.023Z" fill="#5551FE"/>
<path d="M674.523 168.18L391.614 451.09H371.857L654.767 168.18H674.523Z" fill="#45C3F0"/>
<path d="M-4 749.861L204.081 541.78H212.607L-4 758.388V749.861Z" fill="#5551FE"/>
<path d="M-4 359.088L421.097 -66H430.616L-4 368.616V359.088Z" fill="#45C3F0"/>
<path d="M308.649 416.728L134.966 590.411H86.7637L260.455 416.728H308.649Z" fill="#5038E0"/>
<path d="M388.146 337.23L336.212 389.164H288.01L339.943 337.23H388.146Z" fill="#5551FE"/>
<path d="M431.371 294.014L404.635 320.75H356.433L383.168 294.014H431.371Z" fill="#5551FE"/>
<path d="M355.523 224.153L237.151 342.526H184.644L303.016 224.153H355.523Z" fill="#45C3F0"/>
<path d="M-4 560.78L112.38 444.4H120.215L-4 568.615V560.78Z" fill="#5551FE"/>
<path d="M-4 402.295L36.404 361.882H91.6501L-4 457.541V402.295Z" fill="#5038E0"/>
<path d="M-4 630.041L53.421 572.62H74.8242L-4 651.453V630.041Z" fill="#5551FE"/>
</g>
</g>
<defs>
<clipPath id="clip0_493_165">
<rect width="1270" height="590" fill="white"/>
</clipPath>
</defs>
</svg>
