<svg width="131" height="131" viewBox="0 0 131 131" fill="none" xmlns="http://www.w3.org/2000/svg">
<path fill-rule="evenodd" clip-rule="evenodd" d="M102.42 11H99.1504V14.27H102.42V11ZM102.42 19.74H99.1504V23.01H102.42V19.74ZM94.7812 18.65V15.37H98.0813V18.65H94.7812ZM103.512 15.37V18.65H106.792V15.37H103.512ZM14 65.59H17.27V68.86H14V65.59ZM17.27 74.32H14V77.59H17.27V74.32ZM18.3613 73.27V69.95H21.6413V73.27H18.3613ZM111.161 109.27H107.881V112.55H111.161V109.27ZM107.881 117.99H111.161V121.27H107.881V117.99ZM103.512 113.62V116.89H106.792V113.62H103.512ZM112.25 116.89V113.62H115.52V116.89H112.25ZM104.212 44.68L70.7617 25.36C70.0992 24.9763 69.3473 24.7743 68.5817 24.7743C67.8162 24.7743 67.0642 24.9763 66.4017 25.36L32.9517 44.68C32.2871 45.0625 31.7349 45.6132 31.3505 46.2767C30.9661 46.9402 30.763 47.6932 30.7617 48.46V87.08C30.763 87.8468 30.9661 88.5998 31.3505 89.2633C31.7349 89.9268 32.2871 90.4774 32.9517 90.86L66.4017 110.18C67.0642 110.564 67.8162 110.766 68.5817 110.766C69.3473 110.766 70.0992 110.564 70.7617 110.18L104.212 90.86C104.876 90.4774 105.429 89.9268 105.813 89.2633C106.197 88.5998 106.4 87.8468 106.402 87.08V48.46C106.4 47.6932 106.197 46.9402 105.813 46.2767C105.429 45.6132 104.876 45.0625 104.212 44.68ZM42.8417 65.74V58.89C42.8417 58.7468 42.8699 58.6051 42.9247 58.4728C42.9795 58.3406 43.0598 58.2204 43.161 58.1192C43.2622 58.018 43.3824 57.9377 43.5146 57.8829C43.6468 57.8282 43.7886 57.8 43.9317 57.8H70.2917V51.05C70.2913 50.8281 70.3587 50.6114 70.4847 50.4288C70.6108 50.2462 70.7896 50.1064 70.9972 50.0282C71.2049 49.9499 71.4314 49.9368 71.6467 49.9908C71.8619 50.0447 72.0555 50.1631 72.2017 50.33L84.9417 65.03C85.0772 65.1877 85.1647 65.381 85.1939 65.5868C85.2231 65.7927 85.1928 66.0026 85.1066 66.1919C85.0204 66.3811 84.8819 66.5417 84.7074 66.6548C84.5329 66.7678 84.3297 66.8286 84.1217 66.83H43.9317C43.7886 66.83 43.6468 66.8018 43.5146 66.747C43.3824 66.6922 43.2622 66.6119 43.161 66.5107C43.0598 66.4095 42.9795 66.2893 42.9247 66.1571C42.8699 66.0249 42.8417 65.8831 42.8417 65.74ZM94.3117 81.95C94.3117 82.0931 94.2835 82.2348 94.2287 82.3671C94.174 82.4993 94.0937 82.6195 93.9925 82.7207C93.8912 82.8219 93.7711 82.9022 93.6388 82.957C93.5066 83.0118 93.3649 83.04 93.2217 83.04H66.8617V89.8C66.8624 90.0233 66.7945 90.2414 66.6672 90.4249C66.5399 90.6084 66.3592 90.7483 66.1498 90.8258C65.9403 90.9032 65.7121 90.9145 65.496 90.858C65.28 90.8015 65.0865 90.68 64.9417 90.51L52.2117 75.81C52.0763 75.6522 51.9888 75.459 51.9596 75.2531C51.9303 75.0472 51.9606 74.8373 52.0468 74.6481C52.133 74.4589 52.2716 74.2982 52.4461 74.1852C52.6206 74.0721 52.8238 74.0113 53.0317 74.01H93.2217C93.3649 74.01 93.5066 74.0382 93.6388 74.0929C93.7711 74.1477 93.8912 74.228 93.9925 74.3292C94.0937 74.4304 94.174 74.5506 94.2287 74.6828C94.2835 74.8151 94.3117 74.9568 94.3117 75.1V81.95ZM10 73.32V70H13.28V73.32H10Z" fill="url(#paint0_linear_493_439)"/>
<defs>
<linearGradient id="paint0_linear_493_439" x1="69.5" y1="11" x2="69.5" y2="113.5" gradientUnits="userSpaceOnUse">
<stop stop-color="#45C3F0"/>
<stop offset="1" stop-color="#615EFF"/>
</linearGradient>
</defs>
</svg>
