<svg width="131" height="131" viewBox="0 0 131 131" fill="none" xmlns="http://www.w3.org/2000/svg">
<path d="M120.021 65.6721C116.472 52.4861 101.959 51.9498 101.959 51.9498C101.483 32.6756 82.5969 35.6724 82.5969 35.6724C80.4961 31.38 77.3418 27.6845 73.4257 24.9275C69.5097 22.1705 64.9584 20.4412 60.1929 19.8996C56.2585 19.3805 52.2589 19.6727 48.4428 20.7581C44.6267 21.8435 41.0757 23.6988 38.0107 26.2087C25.6521 36.5241 29.6132 52.3599 29.6132 52.3599C26.2772 52.3903 23.0046 53.27 20.1065 54.9151C17.4917 56.3571 15.2827 58.43 13.6825 60.9435C12.0823 63.4569 11.1422 66.3303 10.9485 69.2998C10.4323 78.1734 16.3713 83.3574 20.8798 85.9919C23.9517 87.7869 27.5556 88.2271 31.1134 88.2271H40.9261L41.5916 87.2492L42.3204 86.1767L44.9823 82.1388C44.1282 80.5918 43.4582 78.9509 42.9859 77.2493L37.7738 76.4072C37.2894 76.329 36.9333 75.9108 36.9333 75.42V67.6085C36.9333 67.1405 37.258 66.7351 37.7147 66.6327L38.2008 66.5238L42.9225 65.6091C43.4274 63.7491 44.1843 61.9661 45.1724 60.3094L41.9975 55.9228C41.709 55.5242 41.7534 54.9749 42.1021 54.6278L47.5687 49.1858C47.9072 48.8489 48.4367 48.7983 48.8328 49.0651L49.2286 49.3316L53.5382 52.1707C55.0808 51.3429 56.7198 50.7071 58.4183 50.2779C58.7669 48.3221 59.4324 45.136 59.4324 45.136L59.5245 44.6772C59.6184 44.2102 60.0286 43.8742 60.505 43.8742H68.3446C68.8338 43.8742 69.2512 44.2281 69.3312 44.7107L70.2383 50.1833C71.8945 50.6325 73.4905 51.2786 74.9916 52.1076C76.6394 50.972 79.3963 49.1738 79.3963 49.1738L79.8984 49.0527C80.2362 48.9712 80.5922 49.0709 80.8384 49.3161L86.4902 54.9423C86.8394 55.2898 86.8834 55.8399 86.5939 56.2386L83.2941 60.7826C84.2159 62.3787 84.9295 64.0854 85.4173 65.8614L90.3924 66.8393L90.8785 66.9482C91.3352 67.0505 91.6599 67.4559 91.6599 67.924V76.5868L85.3221 77.5963C84.8795 79.2183 84.2522 80.7847 83.4525 82.265C84.5616 83.9054 86.2411 86.4921 86.2411 86.4921L86.97 87.5647L87.6671 88.5426H98.1424C103.187 88.5426 108.385 87.7657 112.386 84.694C122.031 77.2892 120.609 67.8006 120.021 65.6721Z" fill="url(#paint0_linear_493_378)"/>
<path d="M68.59 52.0965C68.5901 52.0829 68.589 52.0692 68.5868 52.0557L67.775 47.0179C67.6969 46.5333 67.2786 46.177 66.7877 46.177H61.8855C61.401 46.177 60.9865 46.5227 60.9015 46.9997C60.6463 48.4313 60.1301 51.3301 59.9424 52.4048C62.7016 51.7969 65.5233 51.7755 68.2869 52.3407C68.4423 52.3725 68.5892 52.2551 68.59 52.0965Z" fill="#45C3F0"/>
<path d="M84.0832 75.5912C83.6826 75.6591 83.3653 75.9633 83.2632 76.3566C82.8329 78.0155 82.1872 79.6115 81.3425 81.1043C81.1475 81.4488 81.1575 81.8744 81.3779 82.2032C82.0971 83.2762 83.1583 84.9251 83.7473 85.8446C84.0013 86.2411 83.9422 86.76 83.6073 87.0911L80.1147 90.5443C79.7718 90.8833 79.236 90.9294 78.8403 90.6539L75.0102 87.9877C74.9989 87.9799 74.9841 87.9798 74.9727 87.9874C74.2377 88.4826 73.4696 88.9254 72.6743 89.3129C71.5393 89.8659 70.3016 88.9768 70.3016 87.7143C70.3016 86.957 70.7671 86.2846 71.4468 85.9506C74.4902 84.4549 77.0067 82.0561 78.6391 79.0708C80.472 75.7186 81.0758 71.8358 80.3469 68.0888C79.6179 64.3418 77.6017 60.9641 74.6441 58.5354C71.6866 56.1068 67.9721 54.7784 64.1381 54.7784C60.3041 54.7784 56.5897 56.1068 53.6321 58.5354C50.6746 60.9641 48.6583 64.3418 47.9294 68.0888C47.2004 71.8358 47.8042 75.7186 49.6371 79.0708C51.2701 82.0573 53.7879 84.4568 56.833 85.9523C57.5106 86.2852 57.9746 86.9554 57.9746 87.7104C57.9746 88.954 56.7673 89.84 55.6386 89.3178C54.8087 88.9339 54.0072 88.4894 53.2408 87.9875C53.2291 87.9798 53.2138 87.9801 53.2024 87.9883L49.5022 90.6382C49.1061 90.9219 48.5633 90.8788 48.2169 90.5363L44.7478 87.1064C44.4059 86.7684 44.3529 86.235 44.6217 85.8363L46.9641 82.3619C47.1849 82.0343 47.1902 81.6087 46.9918 81.2671C46.0923 79.7187 45.4062 78.0568 44.952 76.3262C44.8486 75.9324 44.5292 75.6289 44.1274 75.563L40.053 74.8946C39.5696 74.8154 39.2148 74.3976 39.2148 73.9078V69.0478C39.2148 68.5708 39.5518 68.1602 40.0196 68.067L44.1152 67.2516C44.5068 67.1736 44.8121 66.8696 44.9091 66.4824C45.3777 64.6118 46.1306 62.8235 47.1418 61.1795C47.361 60.8231 47.3541 60.3685 47.1082 60.03L44.6278 56.6147C44.339 56.2171 44.3819 55.6686 44.729 55.3207L48.1782 51.8636C48.5131 51.528 49.036 51.4727 49.4322 51.7332C50.3813 52.3573 52.1094 53.4972 53.1892 54.2298C53.5183 54.4531 53.9464 54.4629 54.292 54.2661C58.6058 51.8086 63.7001 51.0546 68.5587 52.1706C70.4794 52.622 72.322 53.351 74.0283 54.3335C74.3673 54.5288 74.7884 54.5237 75.114 54.3069L78.9694 51.7403C79.3653 51.4768 79.892 51.5285 80.2291 51.864L83.7005 55.3197C84.0501 55.6677 84.0937 56.2187 83.8031 56.6174L81.1907 60.202C80.9492 60.5334 80.9365 60.9774 81.1438 61.3311C82.0797 62.9275 82.7934 64.6431 83.2654 66.4309C83.366 66.8121 83.6698 67.1091 84.0567 67.1853L88.3813 68.0368C88.8501 68.1291 89.1881 68.5402 89.1881 69.018V73.8809C89.1881 74.3686 88.8362 74.7853 88.3553 74.8668L84.0832 75.5912Z" fill="url(#paint1_linear_493_378)"/>
<path d="M64.2485 75.8929C66.8387 75.8929 68.9385 73.8026 68.9385 71.2241C68.9385 68.6457 66.8387 66.5554 64.2485 66.5554C61.6584 66.5554 59.5586 68.6457 59.5586 71.2241C59.5586 73.8026 61.6584 75.8929 64.2485 75.8929Z" fill="url(#paint2_linear_493_378)"/>
<path d="M70.555 80.7823C72.5127 79.4635 74.0104 77.572 74.8414 75.3691C75.6723 73.1662 75.7953 70.7608 75.1934 68.4853C74.5915 66.2097 73.2944 64.1765 71.4814 62.6667C69.6684 61.1568 67.429 60.2449 65.0728 60.0569C62.5625 59.8658 60.0595 60.5091 57.9558 61.8858C55.8522 63.2626 54.2667 65.2951 53.4478 67.665C52.6288 70.0349 52.6228 72.6083 53.4305 74.982C54.2381 77.3557 55.814 79.3956 57.9111 80.7823" stroke="url(#paint3_linear_493_378)" stroke-width="2" stroke-miterlimit="10" stroke-linecap="round"/>
<path d="M64.2178 83.7791C64.4467 83.7791 64.6733 83.8239 64.8847 83.9111C65.0962 83.9983 65.2883 84.1261 65.4502 84.2872C65.612 84.4483 65.7404 84.6396 65.828 84.8501C65.9156 85.0606 65.9607 85.2862 65.9607 85.5141V96.5865H62.4749V85.5456C62.4707 85.3151 62.5127 85.0861 62.5984 84.872C62.6841 84.6578 62.8118 84.4628 62.974 84.2983C63.1363 84.1339 63.3299 84.0032 63.5434 83.9141C63.757 83.8249 63.9862 83.779 64.2178 83.7791Z" fill="url(#paint4_linear_493_378)"/>
<path d="M83.3572 92.7839C83.7354 92.7839 84.0981 92.9335 84.3655 93.1997C84.633 93.4659 84.7832 93.827 84.7832 94.2035V98.2413H81.9629V94.2035C81.9629 93.827 82.1131 93.4659 82.3806 93.1997C82.648 92.9335 83.0107 92.7839 83.3889 92.7839H83.3572Z" fill="url(#paint5_linear_493_378)"/>
<path d="M45.1404 92.7839C45.5186 92.7839 45.8813 92.9335 46.1487 93.1997C46.4162 93.4659 46.5664 93.827 46.5664 94.2035V98.2413H43.7461V94.2035C43.746 93.8324 43.8919 93.476 44.1525 93.2107C44.4131 92.9454 44.7677 92.7922 45.1404 92.7839Z" fill="url(#paint6_linear_493_378)"/>
<path d="M64.2169 106.334C65.7395 106.334 66.9738 105.105 66.9738 103.59C66.9738 102.074 65.7395 100.845 64.2169 100.845C62.6943 100.845 61.46 102.074 61.46 103.59C61.46 105.105 62.6943 106.334 64.2169 106.334Z" fill="url(#paint7_linear_493_378)"/>
<path d="M64.2173 111.35C68.5226 111.35 72.0128 107.875 72.0128 103.59C72.0128 99.3037 68.5226 95.8293 64.2173 95.8293C59.912 95.8293 56.4219 99.3037 56.4219 103.59C56.4219 107.875 59.912 111.35 64.2173 111.35Z" stroke="url(#paint8_linear_493_378)" stroke-width="2" stroke-miterlimit="10"/>
<path d="M83.3574 107.137C85.6151 107.137 87.4453 105.315 87.4453 103.068C87.4453 100.82 85.6151 98.9983 83.3574 98.9983C81.0997 98.9983 79.2695 100.82 79.2695 103.068C79.2695 105.315 81.0997 107.137 83.3574 107.137Z" stroke="url(#paint9_linear_493_378)" stroke-width="2" stroke-miterlimit="10"/>
<path d="M45.1406 107.137C47.3983 107.137 49.2285 105.315 49.2285 103.068C49.2285 100.82 47.3983 98.9983 45.1406 98.9983C42.8829 98.9983 41.0527 100.82 41.0527 103.068C41.0527 105.315 42.8829 107.137 45.1406 107.137Z" stroke="url(#paint10_linear_493_378)" stroke-width="2" stroke-miterlimit="10"/>
<defs>
<linearGradient id="paint0_linear_493_378" x1="65.6858" y1="19.6499" x2="65.6858" y2="88.5426" gradientUnits="userSpaceOnUse">
<stop stop-color="#45C3F0"/>
<stop offset="1" stop-color="#615EFF"/>
</linearGradient>
<linearGradient id="paint1_linear_493_378" x1="64.2015" y1="51.2874" x2="64.2015" y2="91.1293" gradientUnits="userSpaceOnUse">
<stop stop-color="#45C3F0"/>
<stop offset="1" stop-color="#615EFF"/>
</linearGradient>
<linearGradient id="paint2_linear_493_378" x1="64.2485" y1="66.5554" x2="64.2485" y2="75.8929" gradientUnits="userSpaceOnUse">
<stop stop-color="#45C3F0"/>
<stop offset="1" stop-color="#615EFF"/>
</linearGradient>
<linearGradient id="paint3_linear_493_378" x1="64.1993" y1="60.0239" x2="64.1993" y2="80.7823" gradientUnits="userSpaceOnUse">
<stop stop-color="#45C3F0"/>
<stop offset="1" stop-color="#615EFF"/>
</linearGradient>
<linearGradient id="paint4_linear_493_378" x1="64.2176" y1="83.7791" x2="64.2176" y2="96.5865" gradientUnits="userSpaceOnUse">
<stop stop-color="#45C3F0"/>
<stop offset="1" stop-color="#615EFF"/>
</linearGradient>
<linearGradient id="paint5_linear_493_378" x1="83.373" y1="92.7839" x2="83.373" y2="98.2413" gradientUnits="userSpaceOnUse">
<stop stop-color="#45C3F0"/>
<stop offset="1" stop-color="#615EFF"/>
</linearGradient>
<linearGradient id="paint6_linear_493_378" x1="45.1562" y1="92.7839" x2="45.1562" y2="98.2413" gradientUnits="userSpaceOnUse">
<stop stop-color="#45C3F0"/>
<stop offset="1" stop-color="#615EFF"/>
</linearGradient>
<linearGradient id="paint7_linear_493_378" x1="64.2169" y1="100.845" x2="64.2169" y2="106.334" gradientUnits="userSpaceOnUse">
<stop stop-color="#45C3F0"/>
<stop offset="1" stop-color="#615EFF"/>
</linearGradient>
<linearGradient id="paint8_linear_493_378" x1="64.2173" y1="95.8293" x2="64.2173" y2="111.35" gradientUnits="userSpaceOnUse">
<stop stop-color="#45C3F0"/>
<stop offset="1" stop-color="#615EFF"/>
</linearGradient>
<linearGradient id="paint9_linear_493_378" x1="83.3574" y1="98.9983" x2="83.3574" y2="107.137" gradientUnits="userSpaceOnUse">
<stop stop-color="#45C3F0"/>
<stop offset="1" stop-color="#615EFF"/>
</linearGradient>
<linearGradient id="paint10_linear_493_378" x1="45.1406" y1="98.9983" x2="45.1406" y2="107.137" gradientUnits="userSpaceOnUse">
<stop stop-color="#45C3F0"/>
<stop offset="1" stop-color="#615EFF"/>
</linearGradient>
</defs>
</svg>
