<svg width="131" height="131" viewBox="0 0 131 131" fill="none" xmlns="http://www.w3.org/2000/svg">
<g clip-path="url(#clip0_493_392)">
<path d="M50.9098 13.0201C50.7709 12.9952 50.6287 12.9952 50.4898 13.0201C50.3519 13.0409 50.2194 13.0885 50.0998 13.1601C49.983 13.2257 49.8836 13.3183 49.8098 13.4301C49.7341 13.5426 49.6799 13.668 49.6498 13.8001C49.0898 17.5701 48.0798 30.6401 61.0198 31.1101C61.4611 31.1392 61.9016 31.0421 62.2898 30.8301C62.6637 30.6154 62.9662 30.2954 63.1598 29.9101C64.7498 26.5301 66.5298 16.4801 50.9098 13.0201ZM59.9698 30.8301C58.4575 28.0931 56.5988 25.5623 54.4398 23.3001L56.7698 21.4101C59.236 23.8227 61.2242 26.6795 62.6298 29.8301L59.9698 30.8301Z" fill="url(#paint0_linear_493_392)"/>
<path d="M91.9597 24.1602C91.6518 23.6601 91.1598 23.301 90.5897 23.1602C66.8297 17.6002 64.6097 34.6802 64.5297 40.8302C64.5194 41.4174 64.706 41.9913 65.0597 42.4602C65.4135 42.9226 65.9144 43.2507 66.4797 43.3902C87.2097 48.0602 91.4597 31.8302 92.3297 25.8302C92.4226 25.2467 92.2903 24.6498 91.9597 24.1602ZM67.6197 42.7702L65.4697 40.9302C68.9611 36.686 73.5931 33.5286 78.8197 31.8302L79.9097 34.7202C79.9097 34.7202 72.1797 37.1502 67.6197 42.7702Z" fill="url(#paint1_linear_493_392)"/>
<path d="M90.0304 55.0702C89.9923 54.7793 89.9008 54.4979 89.7604 54.2402C89.6229 53.9856 89.4319 53.7638 89.2004 53.5902C88.9843 53.4113 88.7317 53.2816 88.4604 53.2102C70.9904 48.8302 68.5304 60.4702 68.2204 65.3302C68.1881 65.914 68.3272 66.4944 68.6204 67.0002C68.9107 67.4943 69.3476 67.8857 69.8704 68.1202C83.6404 74.1202 88.5704 61.2902 89.9704 55.9502C90.0499 55.664 90.0703 55.3646 90.0304 55.0702ZM70.3104 67.1202L68.5304 64.9502C71.4002 62.3974 74.8234 60.5455 78.5304 59.5402L79.4104 62.5402C79.4104 62.5402 73.7304 64.1502 70.3104 67.1202Z" fill="url(#paint2_linear_493_392)"/>
<path d="M32.8599 40.8299C32.2433 41.006 31.7218 41.4196 31.4099 41.9799C31.2496 42.2571 31.1466 42.5637 31.1071 42.8815C31.0676 43.1993 31.0924 43.5218 31.1799 43.8299C37.5299 65.5599 53.0199 61.2299 57.9599 59.2199C58.4183 59.0246 58.8082 58.6974 59.0799 58.2799C59.3549 57.8695 59.4947 57.3836 59.4799 56.8899C58.7499 34.7099 39.5299 38.7499 32.8599 40.8299ZM56.7999 58.0499C52.0799 52.5599 44.2899 50.3199 44.2899 50.3199L45.2899 47.3899C50.5672 48.9512 55.2889 51.9868 58.8999 56.1399L56.7999 58.0499Z" fill="url(#paint3_linear_493_392)"/>
<path fill-rule="evenodd" clip-rule="evenodd" d="M63.4701 34.5101C63.4709 32.9125 63.1864 31.3276 62.6301 29.8301L59.9701 30.8301C60.4036 32.0018 60.6271 33.2408 60.6301 34.4901V58.4301C60.0401 57.5195 59.3709 56.6628 58.6301 55.8701L56.5801 57.8301C58.8892 60.3901 60.3097 63.6274 60.6301 67.0601V96.8301H63.4701V79.1801C64.2442 74.4749 66.6692 70.1993 70.3101 67.1201L68.5301 64.9501C66.5299 66.6468 64.8382 68.6767 63.5301 70.9501V51.5401C64.153 48.305 65.5802 45.2787 67.6801 42.7401L65.4901 40.9401C64.7526 41.8137 64.084 42.7432 63.4901 43.7201L63.4701 34.5101Z" fill="url(#paint4_linear_493_392)"/>
<path d="M31.7001 106.4C28.7001 111.63 33.8001 116.83 39.8301 116.83H83.9301C89.9301 116.83 95.0701 111.63 92.0701 106.4C91.1461 104.805 90.0201 103.336 88.7201 102.03C86.7768 100.086 84.4695 98.544 81.93 97.4922C79.3906 96.4404 76.6687 95.8993 73.9201 95.8999H49.8501C46.17 95.9063 42.5562 96.8797 39.3708 98.7225C36.1853 100.565 33.5401 103.213 31.7001 106.4Z" fill="url(#paint5_linear_493_392)"/>
<path d="M23.0801 80.0301H30.1301C30.2052 80.0297 30.279 80.0102 30.3445 79.9732C30.4099 79.9363 30.4648 79.8832 30.5039 79.819C30.543 79.7549 30.565 79.6818 30.5678 79.6067C30.5707 79.5316 30.5542 79.457 30.5201 79.3901L26.9201 72.6201C26.8829 72.5488 26.8268 72.4891 26.7581 72.4475C26.6893 72.4058 26.6105 72.3838 26.5301 72.3838C26.4497 72.3838 26.3708 72.4058 26.3021 72.4475C26.2333 72.4891 26.1773 72.5488 26.1401 72.6201L22.6901 79.3801C22.6535 79.4473 22.6352 79.523 22.6368 79.5995C22.6385 79.676 22.66 79.7508 22.6994 79.8165C22.7388 79.8821 22.7946 79.9363 22.8614 79.9738C22.9282 80.0113 23.0035 80.0307 23.0801 80.0301Z" fill="url(#paint6_linear_493_392)"/>
<path d="M26.5297 80.0298H23.0797C23.0045 80.0295 22.9307 80.0099 22.8653 79.973C22.7999 79.9361 22.745 79.883 22.7059 79.8188C22.6668 79.7546 22.6447 79.6815 22.6419 79.6064C22.6391 79.5313 22.6555 79.4568 22.6897 79.3898L26.1397 72.6298C26.1769 72.5586 26.2329 72.4989 26.3017 72.4572C26.3704 72.4156 26.4493 72.3936 26.5297 72.3936C26.6101 72.3936 26.6889 72.4156 26.7577 72.4572C26.8264 72.4989 26.8825 72.5586 26.9197 72.6298L30.5297 79.3898C30.5638 79.4568 30.5803 79.5313 30.5775 79.6064C30.5746 79.6815 30.5526 79.7546 30.5135 79.8188C30.4744 79.883 30.4195 79.9361 30.3541 79.973C30.2886 80.0099 30.2148 80.0295 30.1397 80.0298H26.5297Z" stroke="url(#paint7_linear_493_392)" stroke-width="3"/>
<path d="M26.5 93V90" stroke="#615EFF" stroke-width="3"/>
<path d="M26.5 89.2869V81" stroke="url(#paint8_linear_493_392)" stroke-width="3"/>
<path d="M107.5 56.2869V48" stroke="url(#paint9_linear_493_392)" stroke-width="3"/>
<path d="M103.86 47.28H110.92C110.996 47.2809 111.07 47.2619 111.136 47.2249C111.201 47.188 111.256 47.1344 111.295 47.0696C111.333 47.0048 111.354 46.9309 111.355 46.8555C111.356 46.7802 111.337 46.7058 111.3 46.64L107.7 39.83C107.663 39.7588 107.607 39.6991 107.538 39.6574C107.469 39.6158 107.391 39.5938 107.31 39.5938C107.23 39.5938 107.151 39.6158 107.082 39.6574C107.013 39.6991 106.957 39.7588 106.92 39.83L103.47 46.59C103.423 46.658 103.396 46.738 103.392 46.8206C103.388 46.9033 103.408 46.9854 103.449 47.0575C103.489 47.1295 103.55 47.1886 103.622 47.228C103.695 47.2674 103.778 47.2854 103.86 47.28Z" fill="url(#paint10_linear_493_392)"/>
<path d="M107.31 47.2798H103.86C103.785 47.2795 103.711 47.2599 103.646 47.223C103.58 47.1861 103.525 47.133 103.486 47.0688C103.447 47.0046 103.425 46.9315 103.422 46.8564C103.419 46.7813 103.436 46.7068 103.47 46.6398L106.92 39.8798C106.957 39.8086 107.013 39.7489 107.082 39.7072C107.151 39.6656 107.23 39.6436 107.31 39.6436C107.39 39.6436 107.469 39.6656 107.538 39.7072C107.607 39.7489 107.663 39.8086 107.7 39.8798L111.3 46.6498C111.337 46.7156 111.356 46.79 111.355 46.8653C111.354 46.9407 111.333 47.0146 111.294 47.0794C111.256 47.1442 111.201 47.1978 111.135 47.2347C111.07 47.2717 110.995 47.2907 110.92 47.2898L107.31 47.2798Z" stroke="url(#paint11_linear_493_392)" stroke-width="3"/>
<path d="M107.5 60V57" stroke="#615EFF" stroke-width="3"/>
<path d="M99.8696 78.4302H96.5996V81.7102H99.8696V78.4302Z" fill="url(#paint12_linear_493_392)"/>
<path d="M99.8696 87.1602H96.5996V90.4402H99.8696V87.1602Z" fill="url(#paint13_linear_493_392)"/>
<path d="M92.2305 82.8301V86.1001H95.5305V82.8301H92.2305Z" fill="url(#paint14_linear_493_392)"/>
<path d="M100.96 82.8301V86.1001H104.24V82.8301H100.96Z" fill="url(#paint15_linear_493_392)"/>
<path d="M25.6404 17.2998H22.3604V20.5698H25.6404V17.2998Z" fill="url(#paint16_linear_493_392)"/>
<path d="M25.6404 26.0298H22.3604V29.3098H25.6404V26.0298Z" fill="url(#paint17_linear_493_392)"/>
<path d="M18 21.6602V24.9402H21.27V21.6602H18Z" fill="url(#paint18_linear_493_392)"/>
<path d="M26.7305 21.6602V24.9402H30.0005V21.6602H26.7305Z" fill="url(#paint19_linear_493_392)"/>
</g>
<defs>
<linearGradient id="paint0_linear_493_392" x1="56.7682" y1="13.0015" x2="56.7682" y2="31.1152" gradientUnits="userSpaceOnUse">
<stop stop-color="#45C3F0"/>
<stop offset="1" stop-color="#615EFF"/>
</linearGradient>
<linearGradient id="paint1_linear_493_392" x1="78.444" y1="22.0635" x2="78.444" y2="44.2227" gradientUnits="userSpaceOnUse">
<stop stop-color="#45C3F0"/>
<stop offset="1" stop-color="#615EFF"/>
</linearGradient>
<linearGradient id="paint2_linear_493_392" x1="79.133" y1="52.2432" x2="79.133" y2="69.6837" gradientUnits="userSpaceOnUse">
<stop stop-color="#45C3F0"/>
<stop offset="1" stop-color="#615EFF"/>
</linearGradient>
<linearGradient id="paint3_linear_493_392" x1="45.2849" y1="39.1338" x2="45.2849" y2="60.9686" gradientUnits="userSpaceOnUse">
<stop stop-color="#45C3F0"/>
<stop offset="1" stop-color="#615EFF"/>
</linearGradient>
<linearGradient id="paint4_linear_493_392" x1="63.4451" y1="29.8301" x2="63.4451" y2="96.8301" gradientUnits="userSpaceOnUse">
<stop stop-color="#45C3F0"/>
<stop offset="1" stop-color="#615EFF"/>
</linearGradient>
<linearGradient id="paint5_linear_493_392" x1="61.883" y1="95.8999" x2="61.883" y2="116.83" gradientUnits="userSpaceOnUse">
<stop stop-color="#45C3F0"/>
<stop offset="1" stop-color="#615EFF"/>
</linearGradient>
<linearGradient id="paint6_linear_493_392" x1="26.6024" y1="72.3838" x2="26.6024" y2="80.0301" gradientUnits="userSpaceOnUse">
<stop stop-color="#45C3F0"/>
<stop offset="1" stop-color="#615EFF"/>
</linearGradient>
<linearGradient id="paint7_linear_493_392" x1="26.6097" y1="72.3936" x2="26.6097" y2="80.0298" gradientUnits="userSpaceOnUse">
<stop stop-color="#45C3F0"/>
<stop offset="1" stop-color="#615EFF"/>
</linearGradient>
<linearGradient id="paint8_linear_493_392" x1="-nan" y1="-nan" x2="-nan" y2="-nan" gradientUnits="userSpaceOnUse">
<stop stop-color="#615EFF"/>
<stop offset="1" stop-color="#615EFF"/>
</linearGradient>
<linearGradient id="paint9_linear_493_392" x1="-nan" y1="-nan" x2="-nan" y2="-nan" gradientUnits="userSpaceOnUse">
<stop stop-color="#615EFF"/>
<stop offset="1" stop-color="#615EFF"/>
</linearGradient>
<linearGradient id="paint10_linear_493_392" x1="107.373" y1="39.5938" x2="107.373" y2="47.281" gradientUnits="userSpaceOnUse">
<stop stop-color="#45C3F0"/>
<stop offset="1" stop-color="#615EFF"/>
</linearGradient>
<linearGradient id="paint11_linear_493_392" x1="107.388" y1="39.6436" x2="107.388" y2="47.2899" gradientUnits="userSpaceOnUse">
<stop stop-color="#45C3F0"/>
<stop offset="1" stop-color="#615EFF"/>
</linearGradient>
<linearGradient id="paint12_linear_493_392" x1="98.2346" y1="78.4302" x2="98.2346" y2="81.7102" gradientUnits="userSpaceOnUse">
<stop stop-color="#45C3F0"/>
<stop offset="1" stop-color="#615EFF"/>
</linearGradient>
<linearGradient id="paint13_linear_493_392" x1="98.2346" y1="87.1602" x2="98.2346" y2="90.4402" gradientUnits="userSpaceOnUse">
<stop stop-color="#45C3F0"/>
<stop offset="1" stop-color="#615EFF"/>
</linearGradient>
<linearGradient id="paint14_linear_493_392" x1="93.8805" y1="82.8301" x2="93.8805" y2="86.1001" gradientUnits="userSpaceOnUse">
<stop stop-color="#45C3F0"/>
<stop offset="1" stop-color="#615EFF"/>
</linearGradient>
<linearGradient id="paint15_linear_493_392" x1="102.6" y1="82.8301" x2="102.6" y2="86.1001" gradientUnits="userSpaceOnUse">
<stop stop-color="#45C3F0"/>
<stop offset="1" stop-color="#615EFF"/>
</linearGradient>
<linearGradient id="paint16_linear_493_392" x1="24.0004" y1="17.2998" x2="24.0004" y2="20.5698" gradientUnits="userSpaceOnUse">
<stop stop-color="#45C3F0"/>
<stop offset="1" stop-color="#615EFF"/>
</linearGradient>
<linearGradient id="paint17_linear_493_392" x1="24.0004" y1="26.0298" x2="24.0004" y2="29.3098" gradientUnits="userSpaceOnUse">
<stop stop-color="#45C3F0"/>
<stop offset="1" stop-color="#615EFF"/>
</linearGradient>
<linearGradient id="paint18_linear_493_392" x1="19.635" y1="21.6602" x2="19.635" y2="24.9402" gradientUnits="userSpaceOnUse">
<stop stop-color="#45C3F0"/>
<stop offset="1" stop-color="#615EFF"/>
</linearGradient>
<linearGradient id="paint19_linear_493_392" x1="28.3655" y1="21.6602" x2="28.3655" y2="24.9402" gradientUnits="userSpaceOnUse">
<stop stop-color="#45C3F0"/>
<stop offset="1" stop-color="#615EFF"/>
</linearGradient>
<clipPath id="clip0_493_392">
<rect width="94.86" height="103.83" fill="white" transform="translate(18 13)"/>
</clipPath>
</defs>
</svg>
