<svg width="153" height="32" viewBox="0 0 153 32" fill="none" xmlns="http://www.w3.org/2000/svg">
<path d="M152.02 31.3788H147.171L130.216 14.513H149.596V17.8865H138.456L152.02 31.3788ZM149.594 0.987305H119.043V31.3788H122.439V4.36304H149.594V0.987305Z" fill="white"/>
<path d="M9.25524 23.6768H12.2638L8.92376 16.9428L9.03603 16.9101C10.7858 16.4147 11.7704 15.0251 11.7566 13.1013C11.7322 10.3023 9.9877 8.69759 6.97154 8.69759H0.980469V23.6867H3.71479V17.4944H6.3926L9.25524 23.6783V23.6768ZM3.71479 15.3351V10.8493H6.47738C8.15845 10.8493 9.05054 11.6243 9.05054 13.0937C9.05054 14.6847 8.15616 15.3351 5.97099 15.3351H3.71479ZM23.3767 16.9914V14.747H18.1426V10.9382H25.3182V8.68924H15.422V23.6776H25.5619V21.4331H18.1426V16.9907H23.3767V16.9914ZM37.0774 14.7478H31.9906V10.939H38.7974V8.69H29.2708V23.6783H32.0051V16.9922H37.0781V14.747L37.0774 14.7478ZM42.0519 8.68924V23.6783H44.7724V8.68848H42.0519V8.68924ZM65.6266 8.68924V23.6783H68.348V8.68848H65.6266V8.68924ZM82.3839 8.68924H71.6819V10.9336H75.6772V23.6783H78.4115V10.9329H82.4068L82.3854 8.68848L82.3839 8.68924ZM85.6911 8.68924V23.6783H88.4116V8.68848H85.6903L85.6911 8.68924ZM58.4815 8.68924V19.3118H58.4402L52.2788 8.70291H49.3971V23.692H51.9481V12.5923H51.9894L55.353 18.4274L58.3829 23.6776H61.0409V8.68848H58.4815V8.68924ZM101.297 8.68924L97.7855 20.8458H97.761L94.2309 8.68924H91.5653L96.2136 23.6783H99.3222L103.971 8.68924H101.297Z" fill="white"/>
</svg>
