<svg width="111" height="46" viewBox="0 0 111 46" fill="none" xmlns="http://www.w3.org/2000/svg">
<g clip-path="url(#clip0_41:271)">
<path d="M109.662 16.8086C109.662 15.4642 108.566 14.374 107.211 14.374H78.9011C73.7392 14.374 69.543 18.3207 69.543 23.443C69.543 28.5652 73.7392 32.5109 78.9011 32.5109H101.638C103.851 32.5109 105.649 34.5176 105.649 36.7108C105.649 38.9061 103.851 40.9127 101.638 40.9127H73.3309C71.9778 40.9127 70.879 42.0029 70.879 43.3443C70.879 44.6896 71.9778 45.7768 73.3309 45.7768H101.638C106.8 45.7768 111 41.8321 111 36.7108C111 31.5886 106.8 27.6448 101.638 27.6448H78.9011C76.6924 27.6448 74.892 25.6363 74.892 23.443C74.892 21.2487 76.6924 19.2431 78.9011 19.2431H107.211C108.566 19.2431 109.662 18.1529 109.662 16.8086Z" fill="white"/>
<path d="M59.735 3.53862C59.735 1.58563 58.1388 0 56.1683 0C54.1978 0 52.6016 1.58563 52.6016 3.53862C52.6016 5.49459 54.1978 7.07724 56.1683 7.07724C58.1388 7.07724 59.735 5.49459 59.735 3.53862Z" fill="white"/>
<path d="M44.8011 7.07724C42.8306 7.07724 41.2344 5.49361 41.2344 3.53862C41.2344 1.58563 42.8306 0 44.8011 0C46.7716 0 48.3678 1.58563 48.3678 3.53862C48.3678 5.49361 46.7716 7.07724 44.8011 7.07724Z" fill="white"/>
<path d="M33.432 7.07724C31.4605 7.07724 29.8652 5.49361 29.8652 3.53862C29.8652 1.58563 31.4605 0 33.432 0C35.4015 0 36.9987 1.58563 36.9987 3.53862C36.9987 5.49361 35.4015 7.07724 33.432 7.07724Z" fill="white"/>
<path d="M22.0628 7.07724C20.0933 7.07724 18.4961 5.49361 18.4961 3.53862C18.4961 1.58563 20.0933 0 22.0628 0C24.0333 0 25.6295 1.58563 25.6295 3.53862C25.6295 5.49361 24.0333 7.07724 22.0628 7.07724Z" fill="white"/>
<path d="M10.6976 7.07724C8.72613 7.07724 7.12891 5.49361 7.12891 3.53862C7.12891 1.58563 8.72613 0 10.6976 0C12.6661 0 14.2623 1.58563 14.2623 3.53862C14.2623 5.49361 12.6661 7.07724 10.6976 7.07724Z" fill="white"/>
<path d="M40.3427 14.3755C40.2656 14.3755 40.1925 14.3914 40.1195 14.3973V14.3755H16.0452C6.48094 14.3755 0 20.5869 0 30.0759V43.3457C0 44.8092 1.19491 45.9977 2.67204 45.9977C4.15117 45.9977 5.34705 44.8092 5.34705 43.3457V30.0759C5.34705 23.4971 9.3581 19.2406 16.0452 19.2406H40.1195V19.2188C40.1925 19.2257 40.2656 19.2406 40.3427 19.2406C41.6957 19.2406 42.7945 18.1504 42.7945 16.808C42.7945 15.4657 41.6957 14.3755 40.3427 14.3755Z" fill="white"/>
<path d="M8.02148 30.0761C8.02148 31.4205 9.12031 32.5107 10.4733 32.5107H34.991C36.348 32.5107 37.4428 31.4205 37.4428 30.0761C37.4428 28.7328 36.348 27.6426 34.991 27.6426H10.4733C9.12031 27.6426 8.02148 28.7328 8.02148 30.0761Z" fill="white"/>
<path d="M53.4922 16.8082V43.3439C53.4922 44.8094 54.6901 45.9999 56.1672 45.9999C57.6443 45.9999 58.8432 44.8094 58.8432 43.3439V16.8082C58.8432 15.3427 57.6443 14.1562 56.1672 14.1562C54.6901 14.1562 53.4922 15.3427 53.4922 16.8082Z" fill="white"/>
</g>
<defs>
<clipPath id="clip0_41:271">
<rect width="111" height="46" fill="white"/>
</clipPath>
</defs>
</svg>
