<svg width="138" height="32" viewBox="0 0 138 32" fill="none" xmlns="http://www.w3.org/2000/svg">
<path fill-rule="evenodd" clip-rule="evenodd" d="M24.544 1.82963L11.8491 22.8943L9.55348 18.8416C9.40594 18.5867 9.41521 18.277 9.56266 18.022L16.6523 6.25567C16.975 5.70925 16.5786 5.01711 15.9425 5.01711L2.34397 4.96246C2.03973 4.95335 1.76315 4.78943 1.61563 4.52532L0.0944498 1.70213C-0.191349 1.15571 0.205081 0.5 0.831995 0.5L23.8341 0.591072C24.4795 0.600181 24.876 1.28321 24.544 1.82963ZM30.5448 0.581963H32.8773H33.9652C34.7212 0.581963 35.1914 1.39249 34.8041 2.03909L18.9497 28.4948L18.9551 28.4952L16.9083 31.9103L16.0994 30.4593C16.0927 30.4483 16.0861 30.4372 16.0798 30.4258L14.4295 27.4751C14.2635 27.1746 14.2728 26.8103 14.4479 26.5189L29.7058 1.05553C29.881 0.764106 30.1945 0.581963 30.5448 0.581963ZM44.3301 6.53726H47.7782L53.6628 23.5477H53.9002L59.7848 6.53726H63.233L55.6243 27.423H51.9387L44.3301 6.53726ZM79.6659 27.423H66.2863V6.53726H79.542V9.24996H69.4763V15.6136H78.8503V18.3161H69.4763V24.7104H79.6659V27.423ZM96.5736 27.423H83.8032V6.53726H86.9933V24.7104H96.5736V27.423ZM108.237 6.25171C113.709 6.25171 117.755 10.3004 117.755 16.9801C117.755 23.6599 113.709 27.7086 108.237 27.7086C102.745 27.7086 98.7086 23.6498 98.7086 16.9801C98.7086 10.3004 102.745 6.25171 108.237 6.25171ZM108.237 24.8327C111.871 24.8327 114.596 22.069 114.596 16.9801C114.596 11.8913 111.871 9.12755 108.237 9.12755C104.593 9.12755 101.877 11.8913 101.877 16.9801C101.877 22.069 104.593 24.8327 108.237 24.8327ZM119.718 6.53726H123.413L128.472 14.7059H128.637L133.696 6.53726H137.391L130.805 16.9801L137.433 27.423H133.717L128.637 19.3665H128.472L123.392 27.423H119.676L126.418 16.9801L119.718 6.53726Z" fill="url(#paint0_linear_493_465)"/>
<defs>
<linearGradient id="paint0_linear_493_465" x1="61" y1="-51.3975" x2="3.78092e-06" y2="48.1025" gradientUnits="userSpaceOnUse">
<stop offset="0.252016" stop-color="#45C3F0"/>
<stop offset="0.833809" stop-color="#5E69FD"/>
</linearGradient>
</defs>
</svg>
