<svg width="139" height="30" viewBox="0 0 139 30" fill="none" xmlns="http://www.w3.org/2000/svg">
<path d="M17.041 16.798L20.9482 14.8873L22.8589 18.7944L18.9518 20.7051L17.041 16.798ZM27.8353 7.98588L31.7424 6.0752L33.6531 9.98231L29.746 11.893L27.8353 7.98588ZM30.4789 20.9802L34.386 19.0695L36.2967 22.9766L32.3896 24.8873L30.4789 20.9802Z" fill="white"/>
<path d="M28.055 19.929L31.5016 18.2434V12.9442L29.8452 13.7543L24.2109 29.5182H29.5594L30.9129 25.7757L28.055 19.929ZM14.6167 15.9641L20.566 13.0549L25.2011 0H0V29.5182H14.7193L17.4646 21.7877L14.6167 15.9641ZM25.191 7.15287L31.5016 4.06651V0H26.8354L27.0447 0.0744672L22.2828 13.4856L25.2846 19.6241L19.0143 22.6914L16.5901 29.5182H22.0996L28.0238 12.9462L25.191 7.15287Z" fill="white"/>
<path d="M127.252 0.112793H120.339L109.276 25.3481V0.112793H103.399V18.0886L91.2996 0.112793H39.4473V29.4971H62.6076V24.3116H45.6683V17.3972H60.5335V11.8625H45.6683V5.29832H70.2123V29.4961H76.7815V5.29832H84.7313V29.4961H90.9534V11.1702L102.707 29.4921H115.152L117.567 22.5777H128.976L131.74 29.4921H139L127.252 0.112793ZM118.782 17.9125L123.622 7.36831L127.943 17.9125H118.782Z" fill="white"/>
</svg>
