<svg width="136" height="57" viewBox="0 0 136 57" fill="none" xmlns="http://www.w3.org/2000/svg">
<path d="M46.6086 10.6221C46.4463 10.79 46.3627 11.0362 46.0326 10.9522C45.0428 10.706 45.2106 12.1049 44.2207 11.9426C43.8908 11.8587 43.3148 12.1049 43.1526 11.5286C43.3149 11.2824 43.8125 11.4446 44.0585 11.2824C44.2209 11.3663 44.4668 11.3663 44.6345 11.3663C44.8805 11.1201 44.4669 10.8683 44.7968 10.706C45.1268 10.8683 45.4568 10.5382 45.6246 10.3759C46.0328 10.4598 46.3627 10.3759 46.5305 10.0458C46.6928 10.0458 46.6088 10.3759 46.6088 10.6221L46.6086 10.6221ZM49.0806 12.105C49.0806 12.2728 49.2482 12.519 49.0023 12.519C48.7507 12.6813 48.4262 12.519 48.1746 12.2728C47.8504 11.7748 47.6825 11.1201 47.9287 10.4599C48.091 10.292 48.2586 10.4599 48.2586 10.6221C48.5046 10.9523 48.1746 11.5286 48.5886 11.9427L49.0806 12.105ZM47.7664 12.105C47.6824 12.519 48.5046 12.4351 48.2585 12.8492C47.9286 13.0115 47.6825 12.6813 47.5148 12.5191C47.3524 12.105 47.2688 11.5286 47.3524 11.2824C48.0123 11.1985 47.5147 11.7748 47.7662 12.105L47.7664 12.105ZM45.8705 9.46943C45.5405 10.0458 44.7968 9.46943 44.3885 9.87791C44.1369 9.96185 43.9746 9.79959 43.8125 9.63172V9.46946C44.1367 9.46946 44.4668 9.38552 44.7128 9.13933C44.9644 9.0554 45.2944 9.46946 45.5405 9.13933C45.7028 9.0554 45.6245 8.72526 45.8704 8.64692C46.2003 8.80918 45.9487 9.22327 45.8704 9.46947L45.8705 9.46943ZM38.8688 20.8454C38.7848 20.6776 38.9471 20.3474 39.607 19.6927C40.2669 18.8646 40.3508 17.4601 40.513 16.6375C40.6806 15.6527 41.3406 14.9084 41.3406 14.9084C41.3406 14.9084 40.2669 15.2386 39.7692 16.8054C39.361 17.9581 39.031 20.1851 38.0412 20.2635H37.8789C37.3029 20.1852 36.8108 19.9389 36.3969 19.5249C36.3969 19.5249 36.067 19.1947 35.9831 19.1108C34.009 16.8054 32.6054 13.6718 32.5215 10.4599C33.0192 7.15848 34.3333 3.61643 37.795 2.46373C38.4549 2.37979 39.1148 2.1336 39.853 2.46373C40.6807 3.04008 40.5968 4.36065 40.5968 5.26715L40.8427 5.42941C41.5026 4.85306 42.2463 4.19277 42.7385 3.37021C42.7385 3.20235 42.4926 3.04005 42.2464 2.95613C42.0788 2.95613 41.9164 3.04007 41.7486 3.04007C41.5027 3.04007 41.3404 2.95613 41.3404 2.70994C41.2564 2.13359 41.8325 1.38937 42.0786 1.38937C43.0684 1.22711 43.7283 0.320603 44.7965 0.975292C45.3724 1.14316 45.8702 1.55723 46.1162 2.21192C46.5301 3.37022 46.3622 4.52293 46.4462 5.75957C46.5302 5.92183 46.6085 6.00576 46.86 6.00576C47.682 5.75957 47.682 5.09927 47.682 4.2767C47.598 3.53248 47.4361 2.62599 48.0903 2.13357C48.6719 1.55722 49.3318 1.05921 50.4838 1.55722C52.2118 2.13358 53.4477 3.77869 54.4375 5.09927C55.2596 6.25197 55.8356 7.48861 56.1656 8.89312C56.4115 11.4447 55.8356 13.7557 54.8458 15.8989C54.1076 17.6279 53.1178 19.0324 51.5519 20.1851C51.222 20.3474 50.8137 20.4313 50.4838 20.2635C50.4838 20.2635 49.9861 19.855 49.74 19.771C49.74 19.9389 50.2377 20.3474 50.316 20.5153C50.4 20.6775 50.5676 20.9237 50.4836 21.1755L50.316 21.3378C50.1537 21.4217 50.0701 21.4217 49.9022 21.4217H49.4101C48.0903 21.584 47.8498 21.584 46.9383 21.7519C46.3623 21.8358 45.7024 21.9141 45.1263 22.082C44.7964 22.082 44.7125 21.7519 44.8804 21.584C44.8804 21.2539 45.1264 21.0916 45.3725 20.9237L45.5401 20.8454C45.7024 20.6775 45.87 20.5992 45.87 20.3474C45.9483 19.357 45.3723 18.6183 45.0424 17.7118C45.0424 17.7118 44.4664 15.8149 43.5604 16.3129C43.3981 16.5591 43.6445 17.2978 43.6445 17.2978C43.5605 18.2882 43.812 19.1108 44.1366 20.0173C44.1366 20.1012 44.2206 20.6775 44.1366 20.8454C43.7283 21.0077 43.4823 21.0916 43.0685 21.0916C42.9845 21.1755 42.8225 21.1755 42.0003 21.2539C40.2667 21.584 38.8686 21.3378 38.8686 20.8454L38.8688 20.8454ZM42.1625 2.46368C42.1625 2.46368 43.0685 2.29582 43.2306 2.70988C43.9744 4.6068 41.5026 4.76907 41.5865 6.25192C42.0786 6.33586 42.6546 6.49812 42.9846 6.00573L43.7283 6.25192C44.1366 6.25192 44.2204 5.51329 44.7126 5.7595C44.9642 5.59164 45.2942 5.51331 45.4564 5.67557C45.7863 5.51331 45.7023 5.09922 45.6239 4.93695C45.2101 5.09921 44.6341 5.18314 44.1364 5.26707C43.9741 5.26707 43.7282 5.01527 43.8905 4.85299C44.4665 5.09918 44.4665 4.10877 45.2103 4.43892C45.5402 4.27665 45.6241 3.77863 45.6241 3.45408C45.4565 2.46365 45.2942 1.6355 44.2205 1.38929C44.0581 1.38929 43.9745 1.30536 43.8122 1.38929C43.8122 1.47322 43.8122 1.55715 43.8905 1.55715C44.0581 1.63548 44.1364 1.80335 43.9745 1.88172C43.7286 2.04958 43.3985 1.96565 43.2308 1.80339C43.2308 1.71946 43.1525 1.71946 42.9849 1.71946C42.7389 1.71946 42.2467 1.80339 42.1628 2.46368H42.1625ZM48.6723 20.5152C48.0907 20.6775 47.8501 20.1851 47.3525 20.1012C47.2685 20.1851 47.2685 20.4313 47.2685 20.5152C47.1902 20.7614 45.9487 21.2539 46.1164 21.4217C46.6924 21.2539 48.5044 21.0916 48.8343 20.5992L48.6723 20.5152ZM49.4105 18.7022C49.2481 18.4505 49.2481 18.1259 48.9183 18.1259C48.5884 18.7022 47.9285 18.042 47.5985 18.6183C47.2686 19.0324 46.3626 19.0324 46.4465 19.6087H47.5985C47.8501 19.6927 48.0906 19.771 48.2584 19.4409C48.5043 19.1108 48.6723 19.6087 49.0022 19.4409C49.0022 19.1947 49.2481 18.9485 49.4105 18.7022ZM48.5883 16.8053C48.5043 16.4752 48.1745 15.731 47.7662 16.3129C47.0224 16.6375 46.2004 16.6375 45.4566 16.9676C45.4566 17.3817 45.6242 17.7958 46.0326 18.042C46.0326 18.2042 46.0326 18.2882 46.2002 18.2882C46.6084 18.2882 46.5301 17.7957 46.6085 17.5439C47.0223 17.0515 47.0223 18.042 47.5144 17.8741C47.682 17.5439 47.4361 16.9676 47.9282 16.8053C48.0905 16.9676 48.1742 17.2977 48.3421 17.3817C48.588 17.2977 48.5044 16.9676 48.588 16.8053L48.5883 16.8053ZM51.5519 11.6965C51.0598 11.9427 50.9759 12.6813 50.7298 13.2577C50.7298 14.0019 50.8922 14.9084 50.3161 15.4847V13.3416L50.2377 13.2577C49.9021 13.7557 49.9861 14.332 49.4939 14.8244C49.0018 15.4847 49.248 16.5591 49.6616 17.2194C50.0698 16.9676 50.3159 16.4752 50.4836 16.0611C50.9758 15.5687 51.0597 14.9084 51.2218 14.332C51.5517 13.5934 51.6357 12.6813 51.5517 11.6965H51.5519ZM53.8613 12.2728C53.9397 11.9427 54.1073 11.3663 53.7774 11.1201C53.2013 11.9427 53.0392 12.8492 53.0392 13.8396L52.5415 15.0707C51.9654 15.6526 51.8816 16.4752 51.3055 17.0515C51.1432 17.3816 50.8917 17.3816 50.8134 17.7118C50.7294 18.0419 50.3157 18.3721 50.3995 18.7022C50.5671 18.6183 50.4836 18.7862 50.5672 18.8645C50.8914 18.7862 50.8914 18.3721 51.2215 18.3721C52.2113 16.3912 53.5312 14.5782 53.8611 12.2728L53.8613 12.2728ZM55.343 11.3663C55.259 10.9522 54.8454 10.79 54.521 10.706C54.521 12.021 54.275 13.1793 53.7772 14.332C53.3634 15.9827 52.2114 17.5439 51.3054 19.1107L51.2214 19.3569C51.7974 19.1946 52.0491 18.7022 52.5412 18.3721C53.861 16.2289 55.1807 14.0019 55.343 11.3663L55.343 11.3663ZM50.3155 11.6964C49.9855 11.3663 49.8233 10.8683 49.4934 10.5381L49.4094 10.7899C49.4094 11.1984 49.661 11.5286 49.9854 11.6964C50.153 11.7748 50.3153 11.8587 50.3153 11.6964L50.3155 11.6964ZM52.2112 14.7461C52.7872 13.4255 52.7872 11.9426 53.1171 10.4598L52.7872 10.8683C51.8812 11.9426 52.049 13.5094 51.5512 14.8244C51.3889 15.8988 50.6453 16.8053 49.9854 17.6278C49.9014 17.7957 49.6612 18.2042 49.9854 18.2881C50.8914 17.2193 51.3891 15.8988 52.2112 14.7461ZM50.6453 10.9522L50.3154 10.4598C50.3154 10.706 50.483 10.9522 50.6453 10.9522ZM51.8812 10.8683C51.3891 10.3758 50.9752 9.71557 50.8131 9.05528C50.6455 9.30708 50.7291 9.71557 50.8914 10.0457C50.8914 10.5381 51.473 10.6221 51.8812 10.8683ZM48.6712 9.63163C48.2574 9.38544 48.0896 8.72514 47.5975 8.89301C47.6815 9.46936 48.2574 9.46936 48.5034 9.7995C48.5874 9.7995 48.671 9.71557 48.671 9.63164L48.6712 9.63163ZM49.4092 9.30707C48.9171 9.05527 48.8332 8.56286 48.5032 8.39499C48.4249 8.56285 48.5032 8.80906 48.6709 8.89299C48.9168 9.13919 49.1629 9.63162 49.409 9.63162C49.5766 9.46936 49.493 9.30706 49.409 9.30706L49.4092 9.30707ZM50.0689 8.72511L49.409 8.14876C49.409 7.9865 49.2467 7.73468 49.1631 7.90256C49.0007 8.31104 49.493 8.47892 49.7391 8.80906C49.9014 8.89299 49.9851 8.80906 50.0691 8.72513L50.0689 8.72511ZM50.8128 8.23271V7.98648L49.7391 6.91211C49.8231 7.5724 50.3151 7.98648 50.8128 8.23268V8.23271ZM54.5205 6.4197L53.4468 4.93685C52.6248 3.77855 51.6349 2.87206 50.399 2.37964C49.9852 2.21177 49.4092 1.88163 48.8332 2.37964C47.8489 3.37007 48.6708 4.52277 48.2571 5.5132C47.9272 6.25183 47.189 6.82818 46.3614 6.74984C45.9475 6.49804 45.6232 6.08956 45.1255 6.25183C44.7955 6.66591 44.1357 6.1735 43.9735 6.74984C43.7275 6.82817 43.4814 6.82817 43.3136 6.66591C42.9836 6.33578 42.8215 6.82817 42.6537 6.9121C42.2455 7.32618 41.6638 6.66591 41.1717 7.07997C40.3496 8.14874 40.7578 9.79945 41.0934 11.12C41.3393 12.1049 42.3237 12.7651 43.1514 13.4254C43.3137 13.6716 42.9054 13.8395 42.9838 14.248C43.1514 14.9083 43.3976 15.8148 44.3036 15.8987C44.1356 14.9083 43.7275 13.5933 44.6335 12.9274C44.7958 12.8491 44.8794 12.8491 45.0417 13.0114C45.0417 13.5094 44.5496 13.9178 44.7118 14.4998C44.7958 15.1545 44.7118 16.061 45.5394 16.061C45.7017 15.8987 45.6234 15.5686 45.8693 15.4063C46.1153 15.3224 46.1993 15.4846 46.3614 15.6525C46.6074 15.8987 46.6074 15.4846 46.7753 15.3224C46.8593 15.3224 47.1052 15.2384 47.1891 15.4063C47.3514 15.5685 47.6812 15.5686 47.849 15.3224C47.5974 14.1641 47.3513 13.0953 46.1154 12.7651C45.7855 12.6812 46.0314 12.1888 46.1994 12.1049C45.7855 11.6964 45.5395 12.5189 45.1257 12.1049C44.9634 11.6964 45.6234 11.6964 45.6234 11.3662C46.0316 11.1984 46.4455 11.6964 46.6916 11.12C46.8592 11.12 46.9375 11.2823 46.9375 11.3662C46.8591 11.6964 46.7751 12.0209 46.3614 12.1888C46.6074 12.519 47.0213 12.435 47.1891 12.7651C47.7651 12.9274 47.9273 13.6716 48.2573 14.0857C48.2573 14.248 48.2573 14.4998 48.5032 14.4998L48.7491 13.8395C49.0791 13.4254 49.0007 12.8491 49.4929 12.6029C49.5769 12.5189 49.6604 12.7651 49.7388 12.8491L49.0789 14.3319C49.0789 14.4998 49.0006 14.746 49.1629 14.746C49.2469 14.3319 49.6606 14.0018 49.5767 13.5933C49.8226 13.2575 50.0689 12.9274 49.985 12.5189C49.409 12.2727 49.0007 11.8586 48.833 11.2823C48.6706 10.8682 48.749 10.3758 48.503 10.0456C48.0892 10.1296 47.681 10.0456 47.4349 9.79945C47.189 9.38537 46.8589 8.72508 46.199 8.72508C46.199 8.64676 46.115 8.47889 46.283 8.39492C46.859 8.31098 47.5133 8.23265 48.0893 7.81857C49.0009 6.99601 49.0792 5.75937 49.0009 4.52273C48.9169 3.77851 49.823 4.27654 49.9852 3.77851C50.1528 3.61625 50.3151 3.61625 50.5667 3.86244C50.891 4.9368 52.5408 4.36045 53.0385 5.51316C53.0385 5.84328 52.5408 5.67542 52.4569 5.67542C52.5409 6.0895 53.0385 6.33571 53.0385 6.82813C52.8709 6.99599 52.7029 7.15829 52.4569 7.15829C51.8809 6.66587 51.7187 5.92165 51.3049 5.26696H51.1426C50.8909 6.08952 51.7186 6.41966 52.0485 7.07995L51.8809 7.32614C51.7186 7.40447 51.4727 7.24221 51.3049 7.15828C50.8911 6.41966 50.1529 5.84331 50.399 5.01515C50.315 4.85289 50.2367 4.76895 50.0691 4.76895C49.8231 4.76895 49.6608 4.93682 49.7391 5.26697C50.3151 6.08953 50.4829 7.15829 51.4727 7.73464C51.7187 7.98644 51.6351 8.39493 51.4727 8.64674C51.3887 9.30702 51.7187 9.79944 52.1326 10.1296C52.211 10.1296 52.4569 10.2079 52.3785 9.96171C52.0486 9.38536 51.8809 8.80901 51.8809 8.14873C51.8809 7.8186 52.2108 7.57238 52.4568 7.65631C52.2945 8.311 52.4568 8.97129 52.6244 9.63158C52.6244 9.71551 52.7867 9.79944 52.9544 9.71551C52.7867 9.22309 52.6244 8.64674 52.7867 8.14873C53.0383 7.98647 53.2006 7.73465 53.3628 7.81861C53.2005 8.31102 53.2004 8.89297 53.2004 9.46932C53.2004 9.79945 53.5304 10.1296 53.8603 10.2079C54.5202 9.46932 53.4465 8.7251 53.8603 7.81861C54.0227 7.65635 53.9386 7.32619 54.2742 7.15832C54.4365 7.15832 54.5201 7.40451 54.5201 7.57239C54.1063 8.06481 54.1063 8.9713 54.5201 9.46932C54.8444 9.71551 54.8443 10.5381 55.3421 10.2079C55.5881 8.89296 55.0963 7.48846 54.5201 6.41969L54.5205 6.4197ZM42.9832 17.2976C43.0672 17.2193 42.7373 16.1449 42.9049 16.061C42.9049 16.1449 42.9832 16.2289 42.9832 16.2289C42.9832 16.1449 42.9049 16.061 42.9049 16.061C42.6533 15.7308 42.245 16.3911 41.7473 16.061C41.6633 15.8987 41.339 16.061 41.1713 16.1449C41.093 16.3128 41.1713 16.475 41.2553 16.6373L41.3393 16.7213L41.6635 16.559C41.8311 16.3128 41.9991 16.559 41.9991 16.7213C41.9991 17.0514 41.8315 17.1354 42.0775 17.2976C42.0775 17.2976 42.4913 16.9675 42.5696 16.8052C42.5696 16.8052 42.8212 17.5438 42.9834 17.2976H42.9832ZM41.0933 20.2633C40.9256 20.0171 40.7576 19.5247 40.3494 19.3568C40.1818 19.5247 40.0195 19.6926 39.9356 19.9388C40.1032 20.0171 40.1032 20.3472 40.3494 20.4312C40.5954 20.4312 41.0094 20.599 41.0933 20.2633ZM41.5015 17.9579C40.9255 17.9579 41.0094 17.3816 40.7577 16.9675C40.5954 17.4599 40.7577 17.9579 40.7577 18.372C40.9253 18.4503 41.0933 18.2041 41.3393 18.2041C41.6635 18.372 41.4176 18.8644 41.5016 19.1106C41.5856 19.0323 41.6639 18.8644 41.6639 18.7861C42.4916 18.4503 42.0777 19.5247 42.4916 19.8548C42.8215 19.7709 42.6539 19.2785 42.9837 19.1106C43.0677 19.0323 43.3136 19.1106 43.3136 18.8644C43.2296 18.5343 42.9837 18.1258 42.6537 18.372C42.1616 18.372 42.0777 17.7956 41.5018 17.9579H41.5015ZM42.6537 15.1545C42.4078 14.4998 42.5697 13.5094 41.7478 13.3415C41.5018 13.6717 41.0934 13.6717 41.1717 14.1641C41.3393 14.248 41.4176 14.9922 41.8316 14.8244C42.1615 14.9083 42.2455 15.2384 42.3238 15.4847C42.4914 15.5686 42.6537 15.3224 42.6537 15.1545V15.1545ZM39.7681 14.8244C39.0299 14.0018 39.5275 12.9274 39.7681 12.1049L38.946 12.7652C38.7 13.5933 39.03 14.5782 39.6059 15.1545C39.7682 15.1545 39.7682 14.9083 39.7682 14.8244L39.7681 14.8244ZM41.2557 12.6812C41.0934 12.4351 40.9258 12.1049 40.6797 11.9426C40.182 12.8491 39.7682 13.8395 40.182 14.8244C40.6797 14.746 40.4336 14.0858 40.6797 13.8395C40.7581 13.2576 41.3396 13.1793 41.2557 12.6812ZM36.396 12.6812C36.396 12.2728 36.4743 12.021 36.2284 11.9426C35.9825 12.6029 36.0661 13.4255 36.2284 14.1641C36.4743 14.9083 37.1344 16.4751 37.7159 17.6278C37.8783 18.1258 37.8783 18.7022 37.7943 19.1946C37.8783 18.9484 38.1242 18.7022 38.1242 18.5343C37.9619 17.5439 37.8782 16.4751 37.4643 15.6525C37.1343 14.5782 36.5583 13.9179 36.3962 12.6812H36.396ZM35.8202 13.2576C35.5686 12.6029 35.9825 11.6125 35.2441 11.1201C34.9925 11.5285 35.0765 12.1049 35.0765 12.6029C35.0765 14.332 35.9825 15.6525 36.5585 17.1354C36.8101 17.4599 36.8101 18.0419 37.1345 18.372C37.2185 18.2042 37.4644 17.3816 37.0561 16.9675C36.5584 15.7309 35.8203 14.6621 35.8203 13.2576H35.8202ZM37.8783 10.0457C37.9623 9.96177 38.0406 9.71553 37.8783 9.71553C37.5484 10.208 37.3023 10.622 36.9723 10.9522C36.6424 11.3662 36.81 12.0209 36.5585 12.519C36.7261 12.6029 36.6425 12.7652 36.8101 12.9274C37.056 13.1792 37.2183 13.5933 37.3805 13.9179C37.5481 14.9083 38.292 15.6525 38.3703 16.7213C38.4543 17.1354 38.292 17.5438 38.6219 17.9579C38.7002 17.5438 38.8679 17.1354 38.7003 16.7213C38.6219 16.3128 38.4543 15.8987 38.2921 15.4846C38.2081 14.746 37.9621 13.9179 37.4644 13.3415C37.0561 12.8491 37.1345 12.519 37.0561 12.0209C37.2185 11.3662 37.716 10.706 37.8782 10.0457L37.8783 10.0457ZM37.3022 9.38539C37.3022 9.05526 37.3805 8.56284 37.0563 8.39496C37.2186 9.13919 36.8103 9.6316 36.6424 10.2079C36.9723 10.1296 37.2184 9.71553 37.3023 9.38539H37.3022ZM40.3501 7.15833C39.1981 6.8282 39.5281 8.23269 39.0304 8.72511C38.868 8.89297 38.7004 9.05523 38.5382 8.89297C38.4542 8.64678 38.5382 8.39496 38.4542 8.31102C38.4542 8.56282 38.1243 8.56282 37.9621 8.7251C38.0404 8.89296 38.292 8.80903 38.4542 8.89296C38.9463 9.96173 38.2083 10.9522 37.716 11.8587L37.632 12.6029C37.9619 13.9179 38.784 14.9922 39.1978 16.2289C39.1138 15.1545 38.3701 14.3319 38.3701 13.2576C38.1242 12.1049 39.2761 11.8587 39.6061 10.9522C39.6901 10.622 39.4437 9.8778 40.0199 9.79946C40.1822 9.55326 40.1039 9.05524 40.1039 8.89296C39.7683 9.22309 39.1141 9.46932 39.444 10.0457C39.1981 10.7899 39.1141 11.9426 38.2081 12.0209C37.9622 11.9426 38.0405 11.6964 38.0405 11.5285C38.5382 11.1984 38.8682 10.4597 38.7843 9.79946C38.8683 8.89296 39.9363 8.47889 39.7685 7.57239C39.8525 7.24227 40.1824 7.24227 40.3501 7.15832V7.15833ZM39.1142 6.6659C38.8683 6.82816 38.6221 7.32618 38.4544 7.65633C38.5384 7.73465 38.622 7.73466 38.7843 7.73466C39.1981 7.5724 39.1981 6.99603 39.1142 6.66589V6.6659ZM39.4441 3.20218C39.1982 3.03992 38.8681 3.03992 38.4543 3.03992C37.7161 3.37005 36.9723 3.61627 36.2285 4.10869C34.3327 5.67547 33.5946 8.14874 33.1808 10.5381C33.0968 11.6964 33.5946 12.8491 33.8406 13.9179C34.0865 15.7308 35.0765 17.2193 36.2285 18.6182L36.5585 18.7021C36.6425 18.6182 36.5585 18.4503 36.5585 18.2881C35.4904 16.1449 34.0867 13.9178 34.5005 11.1984C34.8305 10.622 35.5687 10.1296 35.4065 9.38538H35.2441C34.9142 9.96173 34.6625 10.622 34.0865 10.9522C34.6625 10.1296 34.6625 9.05524 34.9142 8.06481C35.0765 7.73464 35.3224 8.14874 35.4902 8.23268L35.6525 7.98648C35.7365 7.98648 35.9041 7.90255 35.9825 7.98648C36.0665 8.7251 36.0665 9.46933 35.9041 10.1296C36.1501 9.96175 36.2284 9.6316 36.3962 9.46933C36.6422 8.80904 36.3122 8.14875 36.3962 7.5724C36.8101 7.15832 36.8884 6.66591 37.1344 6.25183C38.2082 5.84335 37.5483 7.40454 38.1243 7.65634C38.2919 7.32622 38.3702 6.91212 38.622 6.58197C38.2921 6.25184 37.9621 5.84334 37.6321 5.59154C36.9722 5.09912 36.8101 6.1735 36.3124 6.25183C35.5686 6.4197 35.6525 7.15832 35.2442 7.5724C34.9143 7.40454 34.9927 6.99605 35.0767 6.66591C35.0767 6.08956 35.6527 6.08956 35.9826 5.75942C36.5586 5.51322 36.7264 4.93685 36.9724 4.43884C37.1347 4.36051 37.4645 4.43884 37.5484 4.68503C38.4544 4.52277 38.2083 5.59153 38.8682 5.84333C39.6064 5.92166 39.7686 6.58196 40.4341 6.82817C40.9262 6.25181 39.9363 6.00561 39.8524 5.42926C39.4442 4.76897 40.1041 3.77854 39.4443 3.20218" fill="white"/>
<path d="M31.7829 3.70004V21.0074C31.453 21.3375 31.453 21.0913 31.3691 20.6772C30.9608 18.0417 30.7931 13.5875 26.7554 9.96155C17.7742 1.88703 6.81889 5.42908 9.04463 15.3222C11.8464 27.9292 31.6152 21.0074 34.1708 37.4138C36.8887 54.7211 21.0736 60.1657 8.46862 53.6524C8.46862 53.6524 5.25305 51.5876 3.93885 52.0856C3.44116 52.3318 3.0329 53.4845 2.94902 54.7211C2.94902 56.5341 2.45686 55.9578 2.45686 55.7955V37.2459C2.45686 36.9214 2.70282 36.9998 2.70282 37.162C3.03275 57.6868 25.3572 60.328 24.9434 48.3757C24.3674 34.2803 2.53501 37.9062 0.560913 23.4807C-1.91087 5.67531 15.8838 0.650414 26.3414 8.31086C28.405 9.88324 30.3008 7.4883 30.6252 7.07982C31.2851 6.00545 31.1229 5.01502 31.3689 3.70004C31.4529 3.12369 31.7828 3.28596 31.7828 3.70004" fill="white"/>
<path d="M134.016 21.17C134.1 22.4123 133.44 22.0821 133.44 22.0821C135.089 8.80925 108.397 -6.77463 106.669 27.2749C105.182 57.441 126.108 63.378 134.267 42.7692C134.346 42.523 134.838 40.9562 134.838 40.794C135.005 40.296 135.089 40.8723 135.005 41.5326C130.308 67.8266 85.9888 59.0917 96.2059 20.5993C98.5938 11.4448 110.455 2.70999 119.928 5.34555C125.532 6.91232 124.872 7.73488 128.25 9.55347C132.12 11.5287 133.11 6.82839 133.607 4.43905C134.015 4.19286 134.015 5.0154 134.015 5.0154L134.016 21.17Z" fill="white"/>
<path d="M94.2271 15.2387C95.2952 21.4219 93.9812 26.3684 90.9333 29.0879C85.4975 33.4581 79.5641 32.1375 73.0546 32.3838C72.2326 32.3838 72.3165 33.3742 72.3165 33.3742V55.7959H59.2137L59.1297 6.66616C59.2137 5.67573 57.4016 5.92194 56.2496 5.8436C55.6736 5.8436 55.9197 5.34559 56.1656 5.34559C61.277 5.42952 76.5943 4.85317 85.2456 6.66616C89.6971 7.57265 93.4048 10.2921 94.2269 15.2387H94.2271ZM81.9517 11.0364C79.9721 7.9028 76.6782 6.08981 72.8083 6.33602C72.3162 6.33602 72.3162 6.66618 72.3162 6.66618V31.0688C72.3162 31.6396 72.8083 31.6396 72.8083 31.6396C77.092 31.9753 80.7997 29.3341 82.8577 25.6242C85.2456 21.254 84.5075 14.9086 81.9517 11.0364" fill="white"/>
<path d="M52.7083 23.9731V55.7955C50.8125 55.8795 39.1973 55.7955 39.1973 55.7955V25.2097C39.1973 25.2097 39.2756 24.141 38.5374 24.057C36.9716 23.9731 34.908 23.8108 34.908 23.8108C34.5838 23.8108 34.3376 23.4807 34.908 23.4023H51.9646C52.7083 23.4023 52.7083 23.9731 52.7083 23.9731" fill="white"/>
</svg>
