<svg width="145" height="41" viewBox="0 0 145 41" fill="none" xmlns="http://www.w3.org/2000/svg">
<path d="M107.902 31.1992C102.969 31.1992 99.9028 28.3358 99.9028 23.7203C99.9028 18.9302 102.732 15.9501 107.287 15.9501H107.669C108.241 15.9501 109.027 15.9687 110.102 16.1032V10.3213H113.32V30.6781C113.32 30.6781 110.263 31.1992 107.902 31.1992ZM107.874 18.4885C104.756 18.4885 103.241 20.1742 103.241 23.64C103.241 26.7519 105.07 28.686 108.008 28.686C108.573 28.686 109.22 28.6487 110.101 28.573V18.6958C109.22 18.5539 108.51 18.4885 107.874 18.4885ZM63.8261 30.7323L55.1338 15.5345L55.131 30.7323H52.1016V11.4924H56.3428L65.035 26.5548L65.0313 11.4924H68.1009V30.7323H63.8261ZM91.5135 31.0283C90.05 31.0283 88.5241 30.8639 86.7073 30.5137L86.5107 30.4764V27.7885L86.7978 27.8502C88.4001 28.1929 89.7834 28.4852 91.1677 28.4852C92.2853 28.4852 94.8888 28.3097 94.8888 26.6613C94.8888 25.2791 93.0897 24.9316 91.6449 24.6543L91.5536 24.6356C91.2832 24.5852 91.0288 24.5338 90.8144 24.4796C88.6947 23.9286 86.4333 23.1002 86.4333 20.2545C86.4333 17.4789 88.6257 15.8884 92.4493 15.8884C94.2847 15.8884 95.6168 16.0846 96.6878 16.2452L97.2079 16.3218V18.9302L96.9311 18.8798C95.7193 18.6566 94.2987 18.4268 92.9331 18.4268C91.4147 18.4268 89.6128 18.7117 89.6128 20.0649C89.6128 21.1885 91.0875 21.5097 92.7952 21.8824C95.1833 22.3998 98.1438 23.0498 98.1438 26.3148C98.1438 29.3099 95.7295 31.0283 91.5135 31.0283ZM122.353 31.0283C119.023 31.0283 115.938 30.4399 115.938 26.1794C115.938 21.5424 120.708 21.5424 123.56 21.5424C123.843 21.5424 125.183 21.605 125.594 21.6227C125.591 19.0217 125.558 18.4016 121.793 18.4016C120.301 18.4016 118.643 18.6967 117.18 18.9601L116.9 19.0105V16.4422L117.089 16.4021C118.785 16.0565 120.421 15.8884 122.089 15.8884C125.737 15.8884 128.828 16.2564 128.828 20.7915V30.6818L128.606 30.707C126.079 30.991 124.073 31.0283 122.354 31.0283H122.353ZM123.479 23.8371C120.73 23.8371 119.026 24.2424 119.026 26.2597C119.026 28.5945 121.199 28.7878 123.239 28.7878C124 28.7878 125.369 28.6898 125.787 28.6599V23.9174C125.198 23.8922 123.665 23.8371 123.479 23.8371ZM77.2032 31.0283C73.868 31.0283 70.7845 30.4399 70.7845 26.1794C70.7845 21.5424 75.5543 21.5424 78.4048 21.5424C78.6891 21.5424 80.0323 21.605 80.4443 21.6227C80.4406 19.0217 80.4042 18.4016 76.6393 18.4016C75.146 18.4016 73.4886 18.6967 72.0252 18.9601L71.7455 19.0105V16.4422L71.9385 16.4021C73.5822 16.0616 75.2563 15.8894 76.9348 15.8884C80.5822 15.8884 83.6742 16.2564 83.6742 20.7915V30.6818L83.4514 30.707C80.9253 30.991 78.9184 31.0283 77.2032 31.0283ZM78.3246 23.8371C75.5757 23.8371 73.8755 24.2424 73.8755 26.2597C73.8755 28.5945 76.0455 28.7878 78.085 28.7878C78.8494 28.7878 80.2187 28.6898 80.6372 28.6599V23.9174C80.0435 23.8922 78.511 23.8371 78.3255 23.8371" fill="white"/>
<mask id="mask0_41:255" style="mask-type:alpha" maskUnits="userSpaceOnUse" x="130" y="15" width="15" height="23">
<path d="M130.93 15.0161H144.937V37.4304H130.93V15.0161Z" fill="white"/>
</mask>
<g mask="url(#mask0_41:255)">
<path d="M141.643 37.27V30.9585C140.387 31.1341 139.72 31.1341 139.182 31.1341C137.906 31.1341 136.491 30.8567 135.394 30.3935C132.94 29.3709 131.477 26.7746 131.477 23.4432C131.477 21.7808 131.881 18.7409 134.586 17.1028C135.944 16.2903 137.547 15.9429 139.957 15.9429C140.819 15.9429 141.985 16.0082 143.11 16.0736L144.938 16.1689V35.8075L141.643 37.27ZM139.717 18.4822C136.447 18.4813 134.789 20.153 134.789 23.4432C134.789 27.6795 137.261 28.5696 139.34 28.5696C139.846 28.5696 140.415 28.5696 141.674 28.4089V18.5737C140.688 18.5084 140.232 18.4822 139.716 18.4822H139.717Z" fill="white"/>
</g>
<mask id="mask1_41:255" style="mask-type:alpha" maskUnits="userSpaceOnUse" x="24" y="0" width="26" height="31">
<path d="M24.666 0.0883789H49.8339V30.893H24.666V0.0883789Z" fill="white"/>
</mask>
<g mask="url(#mask1_41:255)">
<path d="M37.7277 0.0883789L27.0845 29.3857C26.9529 29.7464 26.7225 30.0627 26.4199 30.2984C26.1172 30.5341 25.7544 30.6796 25.373 30.7184V30.7324H36.624C37.5049 30.7324 38.259 30.1711 38.5396 29.3866L49.1865 0.0883789H37.7277Z" fill="white"/>
</g>
<path d="M24.4538 30.2879C25.1063 30.2879 25.6777 29.9629 26.0273 29.4707C26.0636 29.4194 26.1913 29.24 26.2818 28.9963L30.1856 18.2449L27.9018 11.9661C27.7688 11.6482 27.5533 11.3717 27.2778 11.1652C27.0022 10.9588 26.6765 10.8299 26.3345 10.792C25.9925 10.7541 25.6466 10.8085 25.3326 10.9496C25.0187 11.0907 24.7481 11.3133 24.5489 11.5944C24.5116 11.6458 24.3597 11.8746 24.2944 12.0689L20.3906 22.8165L22.6846 29.1205C22.8334 29.467 23.0803 29.7622 23.3947 29.9697C23.7091 30.1772 24.0774 30.2878 24.4538 30.2879Z" fill="white"/>
<mask id="mask2_41:255" style="mask-type:alpha" maskUnits="userSpaceOnUse" x="0" y="9" width="26" height="32">
<path d="M0.429688 9.4126H25.5975V40.9765H0.429688V9.4126Z" fill="white"/>
</mask>
<g mask="url(#mask2_41:255)">
<path d="M25.289 10.3315H13.914C13.0332 10.3315 12.2791 10.89 11.9948 11.6783L1.35156 40.9756H12.8104L23.4545 11.6792C23.5926 11.2981 23.8408 10.9667 24.1675 10.7274C24.4942 10.488 24.8846 10.3515 25.289 10.3353V10.3315Z" fill="white"/>
</g>
</svg>
