<svg width="35" height="33" viewBox="0 0 35 33" fill="none" xmlns="http://www.w3.org/2000/svg">
<path fill-rule="evenodd" clip-rule="evenodd" d="M11.8491 23.2917L24.544 2.22709C24.876 1.68067 24.4795 0.997642 23.8341 0.988533L0.831995 0.897461C0.205081 0.897461 -0.191349 1.55317 0.0944498 2.09959L1.61563 4.92278C1.76315 5.18689 2.03973 5.35082 2.34397 5.35992L15.9425 5.41457C16.5786 5.41457 16.975 6.10671 16.6523 6.65313L9.56266 18.4194C9.41521 18.6745 9.40594 18.9841 9.55348 19.2391L11.8491 23.2917ZM32.8773 0.979424H30.5448C30.1945 0.979424 29.881 1.16157 29.7058 1.45299L14.4479 26.9164C14.2728 27.2078 14.2635 27.572 14.4295 27.8726L16.0798 30.8233C16.0861 30.8347 16.0927 30.8458 16.0994 30.8567L16.9083 32.3077L18.9551 28.8926L18.9497 28.8923L34.8041 2.43655C35.1914 1.78995 34.7212 0.979424 33.9652 0.979424H32.8773Z" fill="url(#paint0_linear_493_158)"/>
<defs>
<linearGradient id="paint0_linear_493_158" x1="15.5094" y1="-51" x2="-32.9331" y2="-30.9098" gradientUnits="userSpaceOnUse">
<stop offset="0.252016" stop-color="#45C3F0"/>
<stop offset="0.833809" stop-color="#5E69FD"/>
</linearGradient>
</defs>
</svg>
