<svg width="134" height="34" viewBox="0 0 134 34" fill="none" xmlns="http://www.w3.org/2000/svg">
<path d="M34.6403 0.35498H28.7676V33.8403H34.6403V0.35498Z" fill="white"/>
<path d="M106.343 28.1238C105.904 28.1677 105.461 28.1173 105.043 27.9761C104.625 27.8349 104.242 27.6061 103.919 27.3048C103.595 27.0035 103.34 26.6367 103.169 26.2287C102.997 25.8206 102.915 25.3807 102.926 24.9382C102.926 23.3165 103.942 22.0181 106.354 21.3548L118.924 17.8867V28.1238H106.343ZM124.889 8.95923C124.889 4.68872 122.189 0.35498 115.615 0.35498H103.227C101.214 0.35498 100.514 1.18828 100.33 2.9097C100.253 3.61512 99.9944 6.07007 99.9944 6.07007H114.617C117.715 6.07007 118.924 7.53151 118.924 9.88247V11.8301L106.561 15.2055C99.951 17.0281 96.7662 19.9102 96.7662 24.9536C96.7529 26.1546 96.9846 27.3455 97.4471 28.4532C97.9097 29.5609 98.5932 30.5618 99.4556 31.3943C100.318 32.2268 101.341 32.8733 102.462 33.294C103.582 33.7146 104.777 33.9006 105.972 33.8403H124.889V8.95923Z" fill="white"/>
<path d="M81.7723 9.88339C81.7723 7.53243 82.9832 6.06958 86.0798 6.06958H95.9843C95.9843 6.06958 95.7225 3.61464 95.6469 2.90921C95.4622 1.1892 94.7622 0.354492 92.7505 0.354492H85.0817C78.5077 0.354492 75.8086 4.68964 75.8086 8.96015V33.8412H81.7723V9.88339Z" fill="white"/>
<path d="M58.7739 6.06957C61.8719 6.06957 63.0815 7.53242 63.0815 9.88337V33.8398H69.0466V8.95874C69.0466 4.68964 66.3461 0.354492 59.7721 0.354492H41.5996V33.8398H47.4737V6.06957H58.7739Z" fill="white"/>
<path d="M20.7276 16.2343C20.5443 14.5114 19.8429 13.6795 17.8312 13.6795H6.10962V9.884C6.10962 7.53304 7.31915 6.07019 10.4158 6.07019H24.52C24.52 6.07019 24.2583 3.61524 24.1841 2.91122C23.9979 1.18981 23.2979 0.35791 21.2862 0.35791H9.42044C2.84359 0.35791 0.144531 4.69025 0.144531 8.96076V33.8419H6.10962V19.3918H21.065C21.065 19.3918 20.8032 16.9383 20.7276 16.2343Z" fill="white"/>
<path d="M131.22 28.5327C131.678 28.5362 132.128 28.6551 132.528 28.8784C132.948 29.1034 133.293 29.4462 133.522 29.8649C133.754 30.27 133.877 30.7291 133.877 31.1965C133.878 31.6639 133.757 32.1234 133.526 32.5292C133.301 32.9467 132.96 33.2898 132.545 33.5171C132.142 33.7482 131.685 33.8698 131.221 33.8698C130.757 33.8698 130.301 33.7482 129.897 33.5171C129.482 33.2891 129.14 32.9462 128.913 32.5292C128.681 32.1237 128.56 31.6641 128.561 31.1965C128.561 30.7289 128.684 30.2697 128.918 29.8649C129.147 29.4454 129.494 29.1025 129.916 28.8784C130.315 28.6549 130.763 28.5361 131.22 28.5327ZM131.22 28.9754C130.839 28.978 130.464 29.0771 130.13 29.2634C129.781 29.4528 129.492 29.7385 129.3 30.0869C129.106 30.4271 129.003 30.812 129.002 31.2041C129.003 31.5916 129.104 31.9722 129.296 32.3086C129.486 32.6559 129.77 32.942 130.116 33.1335C130.452 33.3268 130.832 33.4286 131.22 33.4286C131.607 33.4286 131.988 33.3268 132.324 33.1335C132.67 32.9428 132.955 32.6566 133.145 32.3086C133.338 31.9701 133.439 31.5868 133.438 31.197C133.437 30.8072 133.334 30.4244 133.14 30.0869C132.948 29.7379 132.659 29.452 132.31 29.2634C131.976 29.0776 131.602 28.9786 131.22 28.9754ZM130.056 32.6782V29.8073H131.037C131.283 29.7956 131.529 29.8221 131.766 29.886C131.914 29.9356 132.041 30.0336 132.126 30.1642C132.213 30.2871 132.259 30.4339 132.259 30.5844C132.26 30.686 132.241 30.7868 132.203 30.8809C132.165 30.9751 132.108 31.0606 132.037 31.1324C131.878 31.2918 131.666 31.3852 131.442 31.3938C131.532 31.4279 131.615 31.48 131.685 31.5469C131.847 31.7208 131.989 31.9116 132.109 32.1161L132.455 32.6782H131.894L131.639 32.2257C131.52 31.975 131.356 31.7484 131.156 31.5568C131.048 31.4839 130.918 31.4493 130.788 31.4584H130.516V32.6782H130.056ZM130.516 31.0621H131.075C131.267 31.0817 131.459 31.0388 131.625 30.9399C131.703 30.8745 131.753 30.7824 131.767 30.6816C131.781 30.5809 131.756 30.4786 131.699 30.3947C131.651 30.3253 131.583 30.2731 131.503 30.2457C131.353 30.2032 131.197 30.1861 131.041 30.1951H130.516V31.0621Z" fill="white"/>
</svg>
