<svg width="39" height="35" viewBox="0 0 39 35" fill="none" xmlns="http://www.w3.org/2000/svg">
<path fill-rule="evenodd" clip-rule="evenodd" d="M13.0425 24.9536L27.0161 1.48159C27.3815 0.872718 26.9451 0.111627 26.2347 0.101479L0.915793 0C0.225737 0 -0.210621 0.730648 0.103963 1.33952L1.77836 4.48536C1.94073 4.77965 2.24517 4.96231 2.58005 4.97246L17.5482 5.03335C18.2484 5.03335 18.6847 5.80459 18.3295 6.41346L10.5258 19.5245C10.3635 19.8087 10.3533 20.1537 10.5157 20.4378L13.0425 24.9536ZM36.1885 0.0913339H33.6211C33.2355 0.0913339 32.8905 0.294291 32.6977 0.619023L15.9029 28.9925C15.7101 29.3172 15.7 29.7231 15.8826 30.058L17.6991 33.3459C17.7061 33.3586 17.7134 33.371 17.7208 33.3832L18.6112 35L20.864 31.1946C20.862 31.1945 20.8601 31.1944 20.8581 31.1942L38.3094 1.71499C38.7356 0.994495 38.2181 0.0913339 37.386 0.0913339H36.1885Z" fill="white"/>
</svg>
