<svg width="94" height="23" viewBox="0 0 94 23" fill="none" xmlns="http://www.w3.org/2000/svg">
<path d="M3.77819 0.934472H0.330078L7.93874 21.8203H11.6243L19.233 0.934472H15.7848L9.90018 17.945H9.66279L3.77819 0.934472ZM22.2863 21.8203H35.6659V19.1076H25.4763V12.7133H34.8503V10.0108H25.4763V3.64718H35.542V0.934472H22.2863V21.8203ZM39.8032 21.8203H52.5736V19.1076H42.9933V0.934472H39.8032V21.8203ZM73.7552 11.3773C73.7552 4.69763 69.7088 0.648926 64.2369 0.648926C58.745 0.648926 54.7086 4.69763 54.7086 11.3773C54.7086 18.047 58.745 22.1058 64.2369 22.1058C69.7088 22.1058 73.7552 18.0571 73.7552 11.3773ZM70.5964 11.3773C70.5964 16.4662 67.8709 19.2299 64.2369 19.2299C60.5929 19.2299 57.8774 16.4662 57.8774 11.3773C57.8774 6.28851 60.5929 3.52477 64.2369 3.52477C67.8709 3.52477 70.5964 6.28851 70.5964 11.3773ZM79.4133 0.934472H75.7176L82.4177 11.3773L75.6758 21.8203H79.3925L84.4719 13.7637H84.6372L89.7166 21.8203H93.4333L86.8049 11.3773L93.3915 0.934472H89.6957L84.6372 9.10314H84.4719L79.4133 0.934472Z" fill="black"/>
</svg>
