<svg width="137" height="47" viewBox="0 0 137 47" fill="none" xmlns="http://www.w3.org/2000/svg">
<path d="M62.8448 41.86C62.7638 41.8644 62.6785 41.8644 62.5917 41.8644C57.5619 41.8644 54.4407 37.7882 54.4407 31.2191C54.4407 24.6486 57.5898 20.5724 62.6549 20.5724C62.8389 20.5724 63.0169 20.5783 63.195 20.59C67.9084 20.8711 70.8118 24.8899 70.8118 31.2191C70.8118 37.6734 67.7657 41.7261 62.8448 41.8585V41.86ZM63.2759 15.6412C63.2759 15.6412 63.0346 15.6294 62.9139 15.6353C62.805 15.6294 62.7006 15.6294 62.5917 15.6294C59.1541 15.6294 56.1256 16.583 53.7167 18.418V4.2998H47.9746V46.2335H52.9809L53.3429 43.8702C55.7636 45.8259 58.9422 46.8089 62.6549 46.8089H62.7638C66.9887 46.7853 70.5764 45.3256 73.1575 42.5826C75.7725 39.7954 77.1631 35.8634 77.1631 31.2191C77.1631 21.9924 71.7374 15.9517 63.2759 15.6412ZM93.2414 41.8644C88.2175 41.8644 85.0904 37.7882 85.0904 31.2191C85.0904 24.6486 88.2396 20.5724 93.3047 20.5724C98.3345 20.5724 101.462 24.6486 101.462 31.2191C101.462 37.7897 98.3124 41.8644 93.2414 41.8644ZM93.2414 15.6294C88.9827 15.6294 85.3494 17.0951 82.7447 19.8778C80.1254 22.6708 78.7391 26.597 78.7391 31.2191C78.7391 40.6916 83.3495 46.8074 93.3047 46.8074C97.5766 46.8074 101.203 45.3476 103.801 42.584C106.428 39.7954 107.808 35.8634 107.808 31.2191C107.808 21.7452 102.094 15.6294 93.2414 15.6294ZM123.363 20.2516C118.149 20.2516 115.855 24.5559 115.546 28.1951H130.566C130.566 24.1306 128.513 20.2516 123.363 20.2516ZM115.546 32.673C115.609 38.6976 118.701 41.8703 124.272 41.8703C129.772 41.8703 132.985 38.8301 133.314 38.5078L135.814 42.5546C135.814 42.5546 131.858 46.7633 123.57 46.7633C115.281 46.7633 109.389 41.0595 109.389 31.2824C109.389 21.4406 115.54 15.675 123.57 15.675C131.601 15.675 136.332 21.6996 136.332 30.2479L136.268 32.6392L115.546 32.673Z" fill="white"/>
<path d="M37.024 18.4122L33.2598 14.6465L37.024 10.8807L40.7898 14.6465L37.024 18.4122ZM37.0299 7.52999L33.2642 3.76426L37.0314 0L40.7956 3.76426L37.0299 7.52999ZM42.4688 12.9733L38.7016 9.20905L40.7956 7.12237L42.4673 5.44479L46.2331 9.20905L42.4688 12.9733Z" fill="white"/>
<path d="M20.4356 41.0141C12.0256 41.0141 6.55876 34.2478 6.55876 24.3383C6.55876 14.4288 12.3008 7.65663 20.6358 7.65663C26.753 7.65663 29.471 10.7557 31.593 12.969L35.3514 9.19736C33.3398 7.14453 29.3401 2.12061 20.4356 2.12061C9.42832 2.12061 0 10.3923 0 24.4075C0 38.4167 8.47327 46.7561 20.1604 46.7561C28.8456 46.7561 33.5649 42.1516 35.4147 39.7897L31.5121 35.8812C29.8168 37.8634 26.1997 41.0141 20.4356 41.0141Z" fill="white"/>
</svg>
