<svg width="24" height="24" viewBox="0 0 24 24" fill="none" xmlns="http://www.w3.org/2000/svg">
<path d="M7.715 10.8425C8.795 12.965 10.535 14.6975 12.6575 15.785L14.3075 14.135C14.51 13.9325 14.81 13.865 15.0725 13.955C15.9125 14.2325 16.82 14.3825 17.75 14.3825C18.1625 14.3825 18.5 14.72 18.5 15.1325V17.75C18.5 18.1625 18.1625 18.5 17.75 18.5C10.7075 18.5 5 12.7925 5 5.75C5 5.3375 5.3375 5 5.75 5H8.375C8.7875 5 9.125 5.3375 9.125 5.75C9.125 6.6875 9.275 7.5875 9.5525 8.4275C9.635 8.69 9.575 8.9825 9.365 9.1925L7.715 10.8425Z" fill="black"/>
</svg>
