<svg width="122" height="33" viewBox="0 0 122 33" fill="none" xmlns="http://www.w3.org/2000/svg">
<path d="M17.0966 0.899459H18.412V9.14148H17.0966C17.0966 9.14148 15.7418 1.46924 9.9607 1.46924C5.02803 1.46924 3.59427 5.00901 3.66004 7.27499C3.79486 11.8397 11.2859 13.3886 13.8148 14.3807C14.8013 14.7671 21 17.3606 21 24.6202C21 33.0161 12.8743 33.2453 10.1712 32.9146C5.92578 32.3972 2.46304 29.0343 2.46304 29.0343L1.42718 31.8766H0V21.683H1.38115C1.38115 21.683 4.70905 31.094 10.5 31.667C13.9858 32.0108 18.5863 30.7207 17.5734 24.9182C17.0243 21.7812 13.2985 19.453 10.9176 18.5492C8.98732 17.8223 0.670843 15.3795 0.447229 8.72561C0.309114 4.65209 3.07799 0.968228 7.08002 0.146319C8.7566 -0.151081 10.4827 0.00669209 12.0769 0.603064C13.671 1.19943 15.0745 2.2124 16.1397 3.53548L17.0966 0.899459Z" fill="white"/>
<path d="M46.996 22.5055C46.925 20.7335 45.6435 12.0043 36.4296 12.0043C36.4296 12.0043 27.5403 11.5009 26.1033 21.4013C25.9108 22.6963 25.9879 24.0167 26.3298 25.281C27.1312 28.1605 29.5048 33 36.4296 33C46.286 33.0101 47.067 24.2775 46.996 22.5055ZM36.4668 32.067C29.4845 32.067 30.1202 23.2673 30.1202 23.2673C30.1202 12.4272 36.4668 13.1991 36.4668 13.1991C39.0569 13.1991 42.8912 13.9273 42.8912 23.4049C42.8912 32.8825 36.4668 32.067 36.4668 32.067Z" fill="white"/>
<path d="M62.5616 2.16541C63.0621 2.73164 63.4842 3.36791 63.8156 4.05578C64.1573 4.7414 64.4207 5.01566 64.8815 5.1234C66.5869 5.52498 67.7029 3.30159 66.4897 1.9989C66.2052 1.6954 65.8898 1.42501 65.5492 1.19248C65.5492 1.19248 61.339 -1.27252 57.784 0.885577C56.5164 1.6531 55.4637 2.75276 54.7306 4.07528C53.9975 5.39781 53.6095 6.89712 53.6052 8.4242V13.0832H50V14.1084H53.6052V28.6796C53.6052 29.2329 53.3941 29.7636 53.0184 30.1548C52.6428 30.5461 52.1332 30.7659 51.6019 30.7659H50.5831V32H60.317V30.7365H58.5458C58.322 30.7382 58.1001 30.6938 57.8929 30.6058C57.6857 30.5178 57.4973 30.388 57.3384 30.2238C57.1796 30.0596 57.0536 29.8643 56.9676 29.6492C56.8815 29.434 56.8373 29.2032 56.8373 28.9702V14.1084H60.6211V13.0767H56.8373V6.06369C56.8299 5.3784 56.9546 4.69851 57.2039 4.06426C57.4532 3.43002 57.8221 2.85428 58.2887 2.3711C58.8879 1.72091 59.7091 1.34313 60.5741 1.31979C60.9465 1.281 61.3224 1.33778 61.6688 1.48519C62.0153 1.6326 62.3218 1.86615 62.5616 2.16541Z" fill="white"/>
<path d="M77 30.0107L76.0431 29.2823C76.0431 29.2823 74.7861 31.3289 73.0723 31.3289C72.3272 31.3246 71.6141 31.0283 71.0897 30.5049C70.5653 29.9816 70.2723 29.2741 70.2749 28.5375V14.1616H75.9431V13.1729H70.2916L70.3116 7H69.378C69.378 7 68.5178 13.1663 64 13.1663V14.1978H66.9408V28.4716C66.9408 29.6726 67.4234 30.8243 68.2825 31.6736C69.1417 32.5228 70.3069 32.9999 71.5219 32.9999H71.7086C72.5323 33.0052 73.3481 32.8399 74.1032 32.5146C74.8584 32.1894 75.5362 31.7114 76.0931 31.1114C76.416 30.7616 76.7188 30.3941 77 30.0107Z" fill="white"/>
<path d="M83.7397 22.5083V19.5277H96.804C96.804 19.5277 95.8242 12 89.3508 12C82.5802 12 80 17.4644 80 20.8524V22.7699C80 25.9558 81.6102 29.1053 81.9825 29.6584C83.2465 31.5296 85.83 33 87.5871 33H89.2626C92.0257 33 92.9239 32.4403 93.858 31.9833C95.3114 31.2712 96.5852 29.5094 97 27.7508L95.5107 27.7309C95.5107 27.7309 95.2592 28.9199 93.9266 30.079C92.7692 31.0637 91.3025 31.5958 89.7917 31.5792H89.2659C83.6744 31.5859 83.7397 22.5083 83.7397 22.5083ZM88.4853 13.3777C88.7264 13.3775 88.9673 13.3897 89.2071 13.4141C90.2216 13.5235 91.1596 14.0116 91.8388 14.7835C92.5179 15.5554 92.8896 16.5559 92.8815 17.5903V18.5308H83.6874C83.6874 17.842 84.5137 13.3777 88.4853 13.3777Z" fill="white"/>
<path d="M100.6 0.951186V2.14423H103.689V29.0419C103.685 29.4725 103.506 29.884 103.192 30.187C102.878 30.4899 102.454 30.6599 102.012 30.6598H100V32H109.991V30.8037H109.045C108.581 30.8037 108.135 30.6239 107.807 30.3039C107.479 29.984 107.294 29.55 107.294 29.0974V22.7301L108.374 21.8509L114.434 29.4341C114.535 29.5593 114.598 29.7097 114.615 29.868C114.632 30.0263 114.603 30.1862 114.531 30.3292C114.46 30.4722 114.348 30.5926 114.209 30.6765C114.07 30.7604 113.91 30.8045 113.747 30.8037H112.244V32H122V30.7579H120.722L110.997 19.857L118.75 14.0879H120.092V12.9798H112.305V14.0879H112.891C113.141 14.0884 113.384 14.1637 113.587 14.3036C113.791 14.4434 113.946 14.6409 114.03 14.8694C114.115 15.0978 114.126 15.3461 114.06 15.5806C113.995 15.815 113.858 16.0242 113.666 16.1798L107.257 21.3736V0C107.257 0 105.295 0.951186 100.6 0.951186Z" fill="white"/>
</svg>
