<svg width="144" height="48" viewBox="0 0 144 48" fill="none" xmlns="http://www.w3.org/2000/svg">
<path d="M18.2772 13.615L11.4651 30.0757H7.03658L0.246094 13.615H5.10616L9.42097 24.338L13.8263 13.615H18.2772ZM22.0644 30.0757H26.5609V13.615H22.0644V30.0757ZM37.1145 30.0757H32.618V13.615H39.8857C41.1741 13.5862 42.4533 13.8392 43.6328 14.3563C44.641 14.8072 45.4938 15.5432 46.0853 16.4727C46.6754 17.4471 46.9753 18.5683 46.95 19.7059C46.9741 20.7983 46.6951 21.8763 46.1437 22.821C45.5904 23.7193 44.7906 24.4412 43.8386 24.9016L47.267 30.0741H42.4518L39.5694 25.7003H37.1145V30.0757ZM37.1145 17.2834V22.1044H39.6134C40.3629 22.1581 41.1061 21.9363 41.7024 21.4811C41.9426 21.2541 42.13 20.9777 42.2516 20.671C42.3732 20.3644 42.4259 20.035 42.4062 19.7059C42.4249 19.3752 42.3718 19.0444 42.2503 18.7361C42.1288 18.4278 41.9419 18.1493 41.7024 17.9195C41.1099 17.4558 40.3652 17.2285 39.6134 17.2818L37.1145 17.2834ZM55.4379 17.3065H50.5538V13.615H64.7921V17.3065H59.932V30.0757H55.4379V17.3065ZM70.9068 28.4065C69.5977 27.0745 68.9428 25.1853 68.9428 22.7397V13.615H73.4393V22.5986C73.4393 25.2316 74.4458 26.5484 76.4595 26.5484C78.4587 26.5484 79.458 25.2316 79.458 22.5986V13.615H83.8857V22.7397C83.8857 25.1845 83.2307 27.0729 81.9216 28.4065C81.1904 29.0978 80.3242 29.6319 79.3768 29.9757C78.4294 30.3195 77.4211 30.4656 76.4146 30.4049C75.4081 30.4657 74.3998 30.3196 73.4524 29.9758C72.505 29.632 71.6388 29.0979 70.9076 28.4065H70.9068ZM6.4673 38.9637V42.334H11.1488V43.5217H6.4673V47.4276H5.13338V37.7624H11.7221V38.9637H6.4673ZM15.5549 47.43H16.8888V37.7624H15.5549V47.43ZM29.6699 37.7624V47.43H28.5762L22.9715 40.2208V47.43H21.6408V37.7624H22.7345L28.3392 44.9709V37.7624H29.6731H29.6699ZM54.1688 37.7624V47.43H53.0751L47.4704 40.2208V47.43H46.1397V37.7624H47.2334L52.8381 44.9709V37.7624H54.1712H54.1688ZM34.3843 47.43H33.0103L37.2387 37.7624H38.559L42.8025 47.4292H41.3997L40.3765 45.0163H35.4123L34.3843 47.43ZM37.8944 39.171L35.8783 43.9083H39.9065L37.8944 39.171ZM60.5694 46.8983C59.8285 46.4814 59.2169 45.8698 58.8015 45.1303C58.3678 44.3555 58.1469 43.4807 58.161 42.5938C58.1474 41.7076 58.3683 40.8333 58.8015 40.059C59.2191 39.3198 59.833 38.7093 60.5758 38.2941C61.3489 37.8615 62.2231 37.6398 63.1099 37.6516C63.796 37.6431 64.4768 37.7724 65.1116 38.0319C65.7093 38.2801 66.2396 38.6655 66.6593 39.1566L65.7905 40.0271C65.4622 39.6578 65.0571 39.364 64.6034 39.166C64.1496 38.9681 63.658 38.8708 63.1627 38.8808C62.5042 38.8722 61.8554 39.0393 61.2836 39.3647C60.7303 39.6794 60.2752 40.1404 59.9689 40.6967C59.6494 41.2779 59.4861 41.9314 59.4949 42.5938C59.4858 43.2569 59.649 43.911 59.9689 44.4926C60.2747 45.0506 60.7295 45.5129 61.2836 45.8278C61.8559 46.1533 62.5053 46.3203 63.1643 46.3116C63.6604 46.3192 64.1522 46.2194 64.6057 46.019C65.0592 45.8186 65.4634 45.5224 65.7905 45.151L66.6577 46.0215C66.2361 46.5154 65.7037 46.9037 65.1036 47.155C64.4676 47.4175 63.7847 47.5488 63.0963 47.5408C62.2117 47.5533 61.3396 47.3316 60.5694 46.8983ZM70.5169 47.43H71.8508V37.7624H70.5169V47.43ZM76.5636 47.43H75.1888L79.4171 37.7624H80.7374L84.981 47.4292H83.5782L82.555 45.0163H77.5908L76.5636 47.43ZM80.0729 39.171L78.0568 43.9083H82.0842L80.0729 39.171ZM88.319 37.7624H89.6521V46.2287H94.7067V47.43H88.319V37.7624Z" fill="white"/>
<mask id="mask0_41:295" style="mask-type:alpha" maskUnits="userSpaceOnUse" x="92" y="0" width="52" height="48">
<path d="M92.9473 0.822754H143.937V47.5863H92.9473V0.822754Z" fill="white"/>
</mask>
<g mask="url(#mask0_41:295)">
<path d="M104.342 13.6637L94.1203 13.6294C93.9056 13.6363 93.6966 13.6997 93.5145 13.8131C93.3324 13.9265 93.1837 14.0859 93.0836 14.2751C92.9835 14.4643 92.9355 14.6765 92.9444 14.8902C92.9534 15.1038 93.019 15.3113 93.1347 15.4915L98.1236 23.5345L104.342 13.6637Z" fill="white"/>
<path d="M131.462 0.822754C130.996 0.823767 130.538 0.943729 130.131 1.17119C129.725 1.39865 129.384 1.72603 129.14 2.12207L107.243 36.9327C107.12 37.1315 107.055 37.3604 107.055 37.5939C107.055 37.8274 107.12 38.0563 107.243 38.2551L112.625 46.9183C112.747 47.1214 112.919 47.2897 113.125 47.4068C113.332 47.5239 113.565 47.5858 113.802 47.5866C114.04 47.5873 114.273 47.5268 114.481 47.4109C114.688 47.2951 114.861 47.1278 114.984 46.9255L143.937 0.864205L131.462 0.822754Z" fill="white"/>
</g>
<path d="M104.753 13.6637L94.1203 13.6294C93.9056 13.6363 93.6966 13.6997 93.5145 13.8131C93.3324 13.9265 93.1838 14.0859 93.0836 14.2751C92.9835 14.4643 92.9355 14.6765 92.9444 14.8902C92.9534 15.1038 93.019 15.3113 93.1347 15.4915L98.3118 23.8916L104.753 13.6637Z" fill="white"/>
<path d="M106.226 36.5364L124.913 6.78754L111.915 6.74609C111.449 6.74703 110.991 6.86696 110.584 7.09443C110.178 7.3219 109.837 7.64931 109.594 8.04541L99.3746 24.2502C99.251 24.4496 99.1855 24.6792 99.1855 24.9135C99.1855 25.1477 99.251 25.3773 99.3746 25.5767L106.226 36.5364Z" fill="white"/>
</svg>
