<svg width="63" height="59" viewBox="0 0 63 59" fill="none" xmlns="http://www.w3.org/2000/svg">
<g filter="url(#filter0_d_24:30)">
<path fill-rule="evenodd" clip-rule="evenodd" d="M25.4839 32.9536L39.4575 9.48159C39.8229 8.87272 39.3865 8.11163 38.6761 8.10148L13.3572 8C12.6671 8 12.2308 8.73065 12.5454 9.33952L14.2198 12.4854C14.3821 12.7797 14.6866 12.9623 15.0215 12.9725L29.9896 13.0333C30.6898 13.0333 31.1261 13.8046 30.771 14.4135L22.9672 27.5245C22.8049 27.8087 22.7947 28.1537 22.9571 28.4378L25.4839 32.9536ZM48.6301 8.09133H46.0627C45.6771 8.09133 45.332 8.29429 45.1392 8.61902L28.3445 36.9925C28.1517 37.3172 28.1415 37.7231 28.3242 38.058L30.1407 41.3459C30.1477 41.3586 30.1549 41.371 30.1624 41.3833L31.0527 43L33.3056 39.1946C33.3036 39.1945 33.3016 39.1944 33.2997 39.1942L50.751 9.71499C51.1772 8.99449 50.6597 8.09133 49.8275 8.09133H48.6301Z" fill="url(#paint0_linear_24:30)"/>
</g>
<defs>
<filter id="filter0_d_24:30" x="0.441406" y="0" width="62.4629" height="59" filterUnits="userSpaceOnUse" color-interpolation-filters="sRGB">
<feFlood flood-opacity="0" result="BackgroundImageFix"/>
<feColorMatrix in="SourceAlpha" type="matrix" values="0 0 0 0 0 0 0 0 0 0 0 0 0 0 0 0 0 0 127 0" result="hardAlpha"/>
<feOffset dy="4"/>
<feGaussianBlur stdDeviation="6"/>
<feComposite in2="hardAlpha" operator="out"/>
<feColorMatrix type="matrix" values="0 0 0 0 0 0 0 0 0 0 0 0 0 0 0 0 0 0 0.25 0"/>
<feBlend mode="normal" in2="BackgroundImageFix" result="effect1_dropShadow_24:30"/>
<feBlend mode="normal" in="SourceGraphic" in2="effect1_dropShadow_24:30" result="shape"/>
</filter>
<linearGradient id="paint0_linear_24:30" x1="31.6725" y1="8" x2="31.6725" y2="43" gradientUnits="userSpaceOnUse">
<stop stop-color="#45C3F0"/>
<stop offset="1" stop-color="#5E69FD"/>
</linearGradient>
</defs>
</svg>
