<svg width="149" height="36" viewBox="0 0 149 36" fill="none" xmlns="http://www.w3.org/2000/svg">
<path d="M51 3.6748H57.6497L63.7878 24.4902L69.4304 3.6748H75.7364L81.3471 24.4902L86.694 3.6748H93L84.0405 32.6748H77.8944L72.7473 10.967L67.1047 32.6748H60.7987L51 3.6748Z" fill="white"/>
<path d="M107.222 27.8401C100.651 27.8401 99.4824 22.4995 99.4824 19.3273H120.428C120.428 19.3273 121.228 3.70694 108.126 3.70694C95.0245 3.70694 94 13.6574 94 19.3273C94 24.9972 98.498 32.6748 107.222 32.6748C115.946 32.6748 120.436 25.3345 120.436 23.5034H114.745C114.745 23.5034 113.825 27.8401 107.222 27.8401ZM107.222 7.82685C114.121 7.82685 114.425 15.1592 114.425 15.1592H99.5144C99.5144 15.1592 100.347 7.82685 107.222 7.82685ZM120.436 3.6748H128.583L134.698 12.6053L140.716 3.6748H148.793L138.547 17.3275L149 31.9681H141.109L134.794 21.7767L128.031 31.936H119.98L131.048 17.3275L120.436 3.6748Z" fill="white"/>
<rect x="10.9863" y="17.7568" width="8.84704" height="16.0855" transform="rotate(43.0762 10.9863 17.7568)" fill="url(#paint0_linear_110:27)"/>
<rect width="8.84704" height="16.0855" transform="matrix(0.730446 -0.682971 -0.682971 -0.730446 11.0742 17.792)" fill="url(#paint1_linear_110:27)"/>
<rect width="8.84704" height="16.0855" transform="matrix(-0.730446 0.682971 0.682971 0.730446 23.4395 17.6943)" fill="url(#paint2_linear_110:27)"/>
<rect x="23.5273" y="17.8545" width="8.84704" height="16.0855" transform="rotate(-136.924 23.5273 17.8545)" fill="url(#paint3_linear_110:27)"/>
<defs>
<linearGradient id="paint0_linear_110:27" x1="15.4098" y1="17.7568" x2="15.4098" y2="33.8424" gradientUnits="userSpaceOnUse">
<stop stop-color="white"/>
<stop offset="1" stop-color="white" stop-opacity="0"/>
</linearGradient>
<linearGradient id="paint1_linear_110:27" x1="4.42352" y1="0" x2="4.42352" y2="16.0855" gradientUnits="userSpaceOnUse">
<stop stop-color="white"/>
<stop offset="1" stop-color="white" stop-opacity="0"/>
</linearGradient>
<linearGradient id="paint2_linear_110:27" x1="4.42352" y1="0" x2="4.42352" y2="16.0855" gradientUnits="userSpaceOnUse">
<stop stop-color="white"/>
<stop offset="1" stop-color="white" stop-opacity="0"/>
</linearGradient>
<linearGradient id="paint3_linear_110:27" x1="27.9509" y1="17.8545" x2="27.9509" y2="33.94" gradientUnits="userSpaceOnUse">
<stop stop-color="white"/>
<stop offset="1" stop-color="white" stop-opacity="0"/>
</linearGradient>
</defs>
</svg>
