<svg width="115" height="28" viewBox="0 0 115 28" fill="none" xmlns="http://www.w3.org/2000/svg">
<path d="M21.7621 0H0V28H22.1642C23.9771 28 25.7159 27.2986 26.9978 26.0501C28.2798 24.8016 29 23.1083 29 21.3427V7.04503C28.9989 5.17621 28.2359 3.3843 26.8786 2.06321C25.5214 0.742122 23.681 -2.88398e-07 21.7621 0ZM20.2702 17.6224C20.2671 18.3592 19.9654 19.065 19.4308 19.5864C18.8962 20.1078 18.1719 20.4026 17.4153 20.4067H8.83833V7.5267H17.4153C18.1767 7.5267 18.907 7.82131 19.4454 8.34568C19.9838 8.87004 20.2863 9.58122 20.2863 10.3228L20.2702 17.6224Z" fill="white"/>
<path d="M32 0V7.52671H40.6033V28H49.4356V7.52671H58V0H32Z" fill="white"/>
<path d="M85.9881 0H68.1015C66.2181 0 64.4118 0.738946 63.08 2.05427C61.7482 3.3696 61 5.15355 61 7.0137V20.9863C61 22.8465 61.7482 24.6304 63.08 25.9457C64.4118 27.2611 66.2181 28 68.1015 28H85.9881V20.5007H69.7669V7.62071H86L85.9881 0Z" fill="white"/>
<path d="M115 0H97.1049C95.2205 0 93.4134 0.738946 92.081 2.05427C90.7485 3.3696 90 5.15355 90 7.0137V20.9863C90 22.8465 90.7485 24.6304 92.081 25.9457C93.4134 27.2611 95.2205 28 97.1049 28H115V20.5007H98.7591V7.62071H115V0Z" fill="white"/>
</svg>
