<svg width="101" height="102" viewBox="0 0 101 102" fill="none" xmlns="http://www.w3.org/2000/svg">
<path d="M6.06034 101.422H0.289062V72.2995H6.06067L17.8337 90.8183V72.2995H23.6053V101.422H18.209L6.06034 82.2673V101.422Z" fill="white"/>
<path d="M27.7598 72.2995H34.7993L41.263 82.9607L47.7564 72.2995H54.9148L44.15 88.8559V101.422H38.3784V88.7101L27.7598 72.2995Z" fill="white"/>
<path d="M72.8137 80.5162L75.8163 75.8028C75.8163 75.8028 72.3756 72.0525 66.0366 72.0525C59.6058 72.0525 56.6357 76.3863 56.6357 80.6766C56.6357 84.9753 60.7777 87.842 63.5759 88.9448C67.861 90.456 70.8899 91.1992 70.8899 93.3575C70.8899 94.9953 69.2307 96.2175 66.8965 96.2175C62.5183 96.2175 59.0551 92.6423 59.0551 92.6423L55.9219 97.5308C55.9219 97.5308 60.1014 101.733 66.7947 101.733C71.9784 101.733 76.6032 98.1169 76.6032 92.7735C76.6032 87.9615 72.5187 85.3107 68.952 84.2927C65.8605 83.3909 62.5967 82.5266 62.5967 80.3408C62.5967 78.9134 63.79 77.5977 65.876 77.5977C69.4135 77.5977 72.8137 80.5162 72.8137 80.5162Z" fill="white"/>
<path d="M81.7793 101.422V72.2995H100.709V77.3839H87.5509V84.3183H98.8626V89.4035H87.5509V96.3371H100.709V101.422H81.7793Z" fill="white"/>
<path d="M0.289062 65.5967H13.2167V0.87989H0.289062V65.5967Z" fill="white"/>
<path d="M17.834 65.5967H30.7621V0.87989H17.834V65.5967Z" fill="white"/>
<path d="M35.291 65.5967H48.2187V0.87989H35.291V65.5967Z" fill="white"/>
<path d="M52.9238 65.5967H65.8515V0.87989H52.9238V65.5967Z" fill="white"/>
<path d="M70.2363 65.5967H83.164V0.87989H70.2363V65.5967Z" fill="white"/>
<path d="M87.7812 65.5967H100.709V0.87989H87.7812V65.5967Z" fill="white"/>
</svg>
