<svg width="145" height="55" viewBox="0 0 145 55" fill="none" xmlns="http://www.w3.org/2000/svg">
<path fill-rule="evenodd" clip-rule="evenodd" d="M76.2236 19.1539C75.0113 18.1376 72.9424 17.63 70.0155 17.63H63.4141V37.9645H68.3502V31.5914H70.5614C73.2451 31.5914 75.2132 31.0027 76.4656 29.8241C77.8763 28.5037 78.5862 26.7456 78.5862 24.5507C78.5862 22.2747 77.7983 20.4754 76.2236 19.1539ZM70.4387 26.9902H68.3502V22.2312H70.2266C72.5088 22.2312 73.65 23.0292 73.65 24.625C73.65 26.2003 72.5788 26.989 70.4387 26.989V26.9902ZM87.033 17.6289H81.8858V37.9633H92.9991V33.361H87.033V17.6289ZM103.084 17.6289L94.9981 37.9633H100.54L101.6 35.0071H108.625L109.594 37.9633H115.198L107.17 17.6289H103.084ZM103.023 30.8906L105.143 23.9403L107.231 30.8906H103.022H103.023Z" fill="white"/>
<mask id="mask0_41:249" style="mask-type:alpha" maskUnits="userSpaceOnUse" x="0" y="0" width="145" height="55">
<path d="M0.246094 54.826H144.753V0.557129H0.246094V54.826Z" fill="white"/>
</mask>
<g mask="url(#mask0_41:249)">
<path fill-rule="evenodd" clip-rule="evenodd" d="M117.771 37.9634H122.919V17.629H117.771V37.9634ZM142.907 21.4403C142.257 20.5004 141.422 19.702 140.453 19.0934C138.898 18.1171 136.778 17.6301 134.093 17.6301H127.31V37.9634H135.245C138.112 37.9634 140.412 37.0294 142.149 35.1592C143.885 33.2902 144.752 30.8095 144.752 27.7196C144.752 25.2618 144.136 23.1687 142.906 21.4403H142.907ZM134.669 33.3599H132.459V22.2325H134.7C136.274 22.2325 137.484 22.724 138.333 23.7037C139.182 24.6834 139.606 26.0735 139.606 27.8728C139.606 31.5309 137.96 33.3599 134.669 33.3599ZM21.6205 0.557129L4.93684 4.91254L0.338991 21.6357L6.08946 27.5207L0.246094 33.3085L4.57328 50.1048L21.1847 54.7312L27.0292 48.9422L32.7797 54.826L49.4634 50.4706L54.0601 33.7463L48.3108 27.8636L54.1542 22.0758L49.827 5.27835L33.2132 0.652011L27.371 6.4398L21.6205 0.557129ZM11.3823 8.12938L20.1709 5.83392L24.0141 9.76637L18.4093 15.3175L11.3823 8.12938ZM30.6752 9.81896L34.5803 5.95167L43.331 8.38887L36.1894 15.4616L30.6752 9.81896ZM5.60433 20.2628L8.0254 11.4548L15.0501 18.643L9.44639 24.1941L5.60433 20.2617V20.2628ZM39.4913 18.8419L46.6329 11.7669L48.9106 20.6149L45.0066 24.4833L39.4913 18.8419ZM21.7123 18.6967L27.3171 13.1455L32.8302 18.7881L27.2265 24.3393L21.7123 18.6967ZM12.7506 27.5733L18.3542 22.0221L23.8707 27.6647L18.2648 33.2159L12.7506 27.5733ZM30.5307 27.7184L36.1343 22.1673L41.6486 27.8099L36.0437 33.3611L30.5307 27.7184ZM5.48735 34.7683L9.39363 30.8987L14.9067 36.5424L7.76735 43.614L5.48735 34.7683ZM21.5678 36.595L27.1726 31.0439L32.6868 36.6865L27.0832 42.2376L21.5678 36.595ZM39.3468 36.7414L44.9516 31.1902L48.7948 35.1215L46.3749 43.9295L39.3468 36.7414ZM11.0692 46.9954L18.2097 39.9205L23.7262 45.5631L19.8199 49.4326L11.0692 46.9943V46.9954ZM30.3862 45.6168L35.9898 40.0656L43.0156 47.2549L34.2282 49.5492L30.3862 45.6168Z" fill="white"/>
</g>
</svg>
