<svg width="108" height="108" viewBox="0 0 108 108" fill="none" xmlns="http://www.w3.org/2000/svg">
<g clip-path="url(#clip0_41:328)">
<path d="M32.9555 54.9786C33.7598 51.5707 31.6493 48.1561 28.2414 47.3518C24.8336 46.5474 21.4189 48.658 20.6146 52.0659C19.8102 55.4737 21.9208 58.8884 25.3287 59.6927C28.7365 60.497 32.1512 58.3864 32.9555 54.9786Z" fill="white"/>
<path d="M0 0V107.1H107.09V0H0ZM26.78 66.82C24.1554 66.82 21.5898 66.0417 19.4076 64.5836C17.2253 63.1255 15.5245 61.053 14.5201 58.6282C13.5157 56.2035 13.253 53.5353 13.765 50.9612C14.277 48.3871 15.5408 46.0225 17.3967 44.1667C19.2525 42.3108 21.617 41.047 24.1911 40.535C26.7653 40.0229 29.4334 40.2858 31.8582 41.2902C34.283 42.2945 36.3555 43.9954 37.8136 46.1776C39.2717 48.3599 40.05 50.9255 40.05 53.55C40.05 55.2927 39.7068 57.0182 39.0399 58.6282C38.373 60.2382 37.3955 61.7011 36.1633 62.9333C34.9311 64.1656 33.4682 65.143 31.8582 65.8099C30.2482 66.4768 28.5226 66.82 26.78 66.82ZM55.28 66.82C52.9682 66.82 50.6965 66.216 48.6899 65.0679C46.6833 63.9197 45.0115 62.2673 43.8401 60.2742C42.6686 58.2812 42.0382 56.0167 42.0112 53.705C41.9842 51.3933 42.5615 49.1147 43.6861 47.0948C44.8107 45.075 46.4435 43.384 48.4227 42.1893C50.4019 40.9946 52.6589 40.3377 54.9701 40.2836C57.2812 40.2296 59.5665 40.7803 61.5993 41.8812C63.6322 42.982 65.3422 44.5949 66.56 46.56L60.47 49.92C59.6525 48.7472 58.4626 47.8851 57.0935 47.4736C55.7244 47.0622 54.2564 47.1256 52.9278 47.6534C51.5992 48.1813 50.488 49.1427 49.7746 50.3816C49.0612 51.6205 48.7875 53.0642 48.9978 54.4782C49.2082 55.8923 49.8902 57.1937 50.9333 58.1713C51.9764 59.1489 53.3193 59.7453 54.744 59.8636C56.1687 59.982 57.5916 59.6153 58.7817 58.8232C59.9718 58.0311 60.8592 56.86 61.3 55.5L66.91 59.95C65.76 62.0367 64.0697 63.7756 62.0165 64.9843C59.9632 66.193 57.6226 66.8271 55.24 66.82H55.28ZM81.96 66.82C79.6482 66.82 77.3765 66.216 75.3699 65.0679C73.3633 63.9197 71.6915 62.2673 70.5201 60.2742C69.3486 58.2812 68.7182 56.0167 68.6912 53.705C68.6642 51.3933 69.2415 49.1147 70.3661 47.0948C71.4907 45.075 73.1235 43.384 75.1027 42.1893C77.0819 40.9946 79.3389 40.3377 81.65 40.2836C83.9612 40.2296 86.2465 40.7803 88.2794 41.8812C90.3122 42.982 92.0222 44.5949 93.24 46.56L87.15 49.92C86.3325 48.7472 85.1426 47.8851 83.7735 47.4736C82.4044 47.0622 80.9364 47.1256 79.6078 47.6534C78.2792 48.1813 77.168 49.1427 76.4546 50.3816C75.7412 51.6205 75.4675 53.0642 75.6778 54.4782C75.8882 55.8923 76.5702 57.1937 77.6133 58.1713C78.6564 59.1489 79.9993 59.7453 81.424 59.8636C82.8487 59.982 84.2716 59.6153 85.4617 58.8232C86.6518 58.0311 87.5393 56.86 87.98 55.5L93.59 59.95C92.4432 62.0307 90.7593 63.7658 88.7137 64.9741C86.6681 66.1825 84.3358 66.8199 81.96 66.82Z" fill="white"/>
</g>
<defs>
<clipPath id="clip0_41:328">
<rect width="107.09" height="107.1" fill="white"/>
</clipPath>
</defs>
</svg>
